<svg width="331" height="212" viewBox="0 0 331 212" fill="none" xmlns="http://www.w3.org/2000/svg">
<path d="M251.174 84.9946C252.672 85.7322 254.312 86.1347 255.98 86.1741C256.074 86.1634 256.165 86.1342 256.247 86.0881C256.329 86.042 256.402 85.9801 256.46 85.9058C256.518 85.8316 256.561 85.7465 256.586 85.6556C256.61 85.5647 256.617 85.4697 256.605 85.3762C256.466 84.2835 255.234 85.2201 251.816 83.6417L251.99 82.3581C252.077 81.9939 251.643 81.4041 251.174 81.5776C250.706 81.751 250.585 82.3061 250.446 83.3121C250.307 84.3181 250.238 84.5263 251.174 84.9946ZM70.0751 89.9207C72.1629 89.3532 74.1236 88.3937 75.8527 87.0934C76.5293 86.5731 76.3037 85.3589 76.1129 84.665C76.0586 84.4851 75.9397 84.3315 75.779 84.2337C75.6184 84.1359 75.4273 84.1009 75.2424 84.1353C75.0576 84.1697 74.8919 84.2711 74.7772 84.42C74.6624 84.569 74.6068 84.7551 74.6208 84.9426C74.6538 85.3185 74.7235 85.6903 74.829 86.0527C70.7171 89.0535 69.1208 88.3076 69.3638 89.5218C69.4177 89.6604 69.5182 89.7759 69.6479 89.8487C69.7776 89.9215 69.9287 89.9469 70.0751 89.9207ZM65.3559 86.7118C68.8259 86.7118 67.6461 84.665 66.7092 84.9773L65.3733 85.1854C64.2282 79.7563 65.1477 78.6115 64.1588 78.5768C64.0096 78.5672 63.8626 78.6162 63.7492 78.7134C63.6357 78.8106 63.5648 78.9483 63.5515 79.0972C63.429 81.2419 63.5864 83.3935 64.0199 85.4976C64.2108 86.4343 64.5578 86.7118 65.3559 86.7118ZM166.107 83.7284C167.096 83.7284 172.301 82.6009 173.186 82.4622C174.487 82.2367 176.032 81.8377 176.136 80.4328C176.136 79.5655 175.511 78.5595 174.8 79.0798C174.652 79.1836 174.542 79.3337 174.489 79.5064C174.436 79.6791 174.441 79.8646 174.505 80.0338C174.765 80.7103 174.21 80.6583 165.83 82.4795C165.676 82.5271 165.545 82.631 165.464 82.7704C165.383 82.9098 165.358 83.0745 165.393 83.2319C165.428 83.3893 165.521 83.5277 165.653 83.6197C165.785 83.7117 165.948 83.7505 166.107 83.7284ZM51.9964 41.2667C52.3781 41.7004 53.315 41.2667 53.0374 40.6076C51.3024 36.3753 48.11 31.6573 46.0974 27.0088C45.7851 26.2629 45.1605 24.9967 44.5532 24.9273C44.4772 24.9166 44.3997 24.9272 44.3293 24.9578C44.2588 24.9884 44.1982 25.0379 44.1542 25.1008C43.7725 25.6211 44.3277 27.0608 44.5879 27.6679C45.386 29.3851 49.2551 38.1272 51.9964 41.2667ZM108.245 33.9469C108.278 34.0824 108.345 34.2069 108.441 34.3082C108.536 34.4095 108.657 34.4841 108.79 34.5244C108.923 34.5647 109.065 34.5695 109.201 34.5382C109.336 34.5069 109.462 34.4406 109.564 34.3459C110.996 33.0419 112.298 31.6012 113.45 30.0442C118.655 46.6959 118.655 47.2856 119.471 47.2856C119.587 47.2823 119.702 47.254 119.807 47.2024C119.912 47.1509 120.005 47.0774 120.079 46.9869C120.153 46.8964 120.207 46.7911 120.236 46.678C120.266 46.5649 120.271 46.4468 120.251 46.3316C118.308 40.1913 116.261 34.1898 114.491 28.0668C114.451 27.9147 114.368 27.7776 114.25 27.6729C114.133 27.5681 113.987 27.5004 113.832 27.4781C113.676 27.4559 113.517 27.4801 113.375 27.5479C113.233 27.6156 113.114 27.7237 113.034 27.8587C112.037 29.4254 110.874 30.8794 109.564 32.1951C108.523 27.4424 106.094 16.5841 106.094 16.5841C106.05 16.4093 105.939 16.259 105.784 16.1663C105.63 16.0736 105.444 16.0461 105.27 16.0898C105.095 16.1335 104.944 16.2449 104.852 16.3994C104.759 16.5539 104.731 16.7389 104.775 16.9137C105.365 19.6023 107.881 32.7501 108.245 33.9469ZM17.8689 124.178C12.2822 121.507 7.3028 118.766 1.5773 115.748C0.466897 115.158 -0.296503 117.188 1.4385 117.656C6.4373 120.775 11.7676 123.329 17.3311 125.271C18.0251 125.462 18.5109 124.56 17.8689 124.178ZM22.3105 84.1273C22.4298 84.2328 22.5785 84.2993 22.7367 84.3179C22.8948 84.3365 23.0549 84.3064 23.1954 84.2314C24.3405 83.6764 22.8657 82.3061 23.4209 74.067C37.4918 91.0482 36.711 90.6145 37.3009 90.6145C37.4231 90.6222 37.5449 90.5947 37.6519 90.5354C37.759 90.4762 37.8469 90.3875 37.9052 90.28C37.9636 90.1724 37.9899 90.0504 37.9813 89.9284C37.9726 89.8064 37.9292 89.6894 37.8561 89.5912C35.6527 86.8159 26.0061 74.8302 23.4383 71.5692C23.3417 71.4469 23.2121 71.3548 23.0648 71.3039C22.9175 71.2529 22.7587 71.2453 22.6072 71.2818C22.4556 71.3183 22.3178 71.3974 22.2098 71.5098C22.1019 71.6223 22.0285 71.7633 21.9982 71.9161C21.6455 75.0839 21.5875 78.2776 21.8247 81.4561C16.6197 76.7902 11.6403 71.8468 6.38325 67.3023C6.2241 67.1746 6.02501 67.107 5.821 67.1116C5.61699 67.1161 5.42111 67.1924 5.26779 67.3271C5.11448 67.4617 5.01354 67.646 4.98273 67.8477C4.95193 68.0494 4.99322 68.2555 5.09935 68.4297C7.14665 71.6039 18.7017 80.8491 22.3105 84.1273ZM159.167 19.7931C159.167 19.9633 159.235 20.1265 159.355 20.2469C159.476 20.3672 159.639 20.4348 159.809 20.4348C159.98 20.4348 160.143 20.3672 160.263 20.2469C160.384 20.1265 160.451 19.9633 160.451 19.7931C160.749 13.422 160.482 7.03707 159.653 0.713053C159.635 0.546193 159.569 0.388096 159.463 0.257925C159.358 0.127754 159.216 0.031101 159.056 -0.02031C158.897 -0.0717211 158.725 -0.075682 158.563 -0.0317173C158.401 0.0122473 158.256 0.102251 158.144 0.227382C157.363 1.23342 159.237 4.40764 159.167 19.7931ZM206.116 49.9221C219.32 27.6505 218.608 28.7607 218.504 28.3617C218.209 27.3557 217.377 27.8413 210.697 29.8534C212.432 23.6958 214.601 17.1219 216.041 10.8948C216.071 10.6935 216.024 10.4882 215.91 10.3194C215.796 10.1506 215.624 10.0305 215.426 9.98266C215.228 9.93482 215.019 9.96274 214.841 10.0609C214.662 10.1591 214.527 10.3205 214.462 10.5132C212.501 17.4514 210.558 24.2335 208.684 30.8941C208.654 31.0318 208.659 31.1749 208.699 31.3101C208.739 31.4452 208.813 31.5679 208.914 31.6667C209.014 31.7655 209.138 31.8372 209.274 31.875C209.41 31.9128 209.553 31.9155 209.691 31.8828C209.691 31.8828 214.288 30.4605 216.145 29.8534L205.058 49.3324C204.993 49.4715 204.982 49.6304 205.029 49.7768C205.077 49.9232 205.177 50.0463 205.312 50.1212C205.446 50.1961 205.604 50.2172 205.753 50.1802C205.903 50.1433 206.033 50.051 206.116 49.9221ZM330.169 100.796C329.267 100.363 312.576 110.735 312.403 110.857C311.795 111.29 312.403 112.366 313.027 112.036C314.033 111.585 329.978 102.722 330.516 101.768C330.557 101.681 330.581 101.587 330.586 101.492C330.59 101.396 330.576 101.3 330.544 101.21C330.512 101.12 330.462 101.037 330.398 100.966C330.333 100.895 330.256 100.837 330.169 100.796ZM285.996 80.9705C285.996 80.9705 302.721 68.2216 305.844 65.7932C306.521 65.2555 305.844 64.0587 305.046 64.1454C301.898 64.2204 298.763 64.5745 295.677 65.2035C300.156 60.427 304.121 55.1948 307.51 49.5926C308.082 48.6559 306.694 47.6845 306.139 48.6385C302.317 54.8722 297.768 60.6307 292.589 65.7932C292.034 66.3309 292.381 67.6492 293.283 67.5277C296.345 66.7482 299.468 66.226 302.617 65.9667C302.617 65.9667 289.362 76.6341 285.267 80.0165C285.198 80.1271 285.165 80.256 285.171 80.3862C285.177 80.5163 285.223 80.6415 285.302 80.745C285.381 80.8486 285.49 80.9256 285.614 80.9659C285.738 81.0061 285.871 81.0077 285.996 80.9705ZM262.07 30.7554C272.723 12.4039 274.58 9.73269 272.792 9.28171C272.029 9.09091 272.064 9.16029 260.873 30.0963C260.821 30.2506 260.824 30.4185 260.883 30.5704C260.942 30.7224 261.052 30.8488 261.195 30.9275C261.338 31.0061 261.504 31.032 261.664 31.0005C261.824 30.969 261.968 30.8822 262.07 30.7554Z" fill="black"/>
<path d="M311.24 143.969C304.161 121.646 286.273 104.474 262.122 96.8766C262.106 96.4345 262.059 95.9941 261.983 95.5583C268.576 92.679 270.051 82.7747 268.593 74.154C269.86 72.0899 273.226 61.4745 270.745 62.9315L266.216 65.6027C265.574 63.8682 264.828 62.255 264.03 60.6592C264.204 57.884 261.671 52.9232 257.212 49.6796C253.117 46.6961 246.073 44.025 235.802 48.2919C227.786 51.6223 218.747 58.9767 217.376 69.6615C215.641 83.5379 220.239 90.2679 211.651 103.156C202.161 98.8599 192.046 96.1077 181.687 95.0033C181.688 94.2259 181.635 93.4493 181.531 92.679C185.955 90.4414 186.892 83.1563 187.083 80.78C192.288 76.2702 192.895 67.2852 188.818 67.0771C189.866 60.6402 190.267 54.1148 190.015 47.5981C189.79 43.5566 188.055 42.6547 187.256 42.4812C186.693 42.3747 186.111 42.4289 185.578 42.6375C185.044 42.846 184.579 43.2006 184.238 43.6607C182.936 41.0068 180.438 41.3364 179.033 43.3485C178.895 42.6343 178.536 41.9816 178.006 41.4826C177.477 40.9836 176.804 40.6636 176.083 40.5677C175.362 40.4718 174.629 40.605 173.987 40.9483C173.346 41.2917 172.829 41.8279 172.509 42.4812C172.173 41.7651 171.631 41.1652 170.953 40.7576C170.274 40.3501 169.49 40.1533 168.7 40.1924C167.91 40.2314 167.149 40.5045 166.514 40.9769C165.879 41.4493 165.399 42.0997 165.135 42.8455C163.4 39.0815 158.976 39.9488 157.987 43.7648C156.686 40.8334 153.129 40.8507 151.897 44.2504C148.653 41.8568 146.102 44.2504 145.582 48.1879C145.267 54.8831 145.545 61.5931 146.415 68.2392C140.533 66.921 145.113 80.6932 148.618 81.0228C149.225 86.2264 151.377 91.9504 155.558 93.3381C155.558 94.0319 155.454 94.7431 155.454 95.4369C144.236 97.2279 133.44 101.055 123.599 106.729C118.186 102.913 106.145 97.7265 94.5728 98.6805C92.4759 94.2516 90.8982 89.5952 89.8709 84.8041C89.1075 80.6239 91.0681 78.976 91.0507 75.3682C93.2971 70.8424 93.8568 65.6644 92.6296 60.7633C87.1643 43.4179 54.1473 50.0091 55.0842 69.0544C55.2056 71.2226 55.3965 73.3908 55.5873 75.0733C51.5101 76.3048 52.1173 76.5997 53.2451 81.5605C53.8523 84.2664 54.5463 86.504 57.3917 85.9142C58.693 91.5515 61.9721 100.554 69.7102 100.554C70.1787 100.554 69.7102 100.259 70.144 103.173C50.7293 111.62 26.3526 127.457 20.0372 155.209C18.5104 161.905 17.5908 171.41 21.963 178.591C26.769 186.587 35.2705 187.09 41.3777 186.691C39.9481 194.544 39.4878 202.542 40.007 210.507C40.0102 210.618 40.0438 210.726 40.1044 210.82C40.1649 210.913 40.25 210.988 40.3503 211.036C40.4506 211.085 40.5622 211.104 40.6731 211.094C40.7839 211.083 40.8896 211.042 40.9786 210.975C41.9155 210.42 40.0764 209.83 43.0086 186.57C59.3523 185.061 74.9326 178.036 89.3331 170.647C91.71 172.381 94.0696 174.116 96.516 175.677C98.5272 179.743 101.609 183.183 105.431 185.628C109.252 188.073 113.668 189.43 118.203 189.553C117.77 196.855 117.77 204.176 118.203 211.478C118.21 211.566 118.234 211.652 118.275 211.731C118.315 211.81 118.371 211.88 118.439 211.936C118.507 211.993 118.586 212.035 118.67 212.061C118.755 212.086 118.844 212.095 118.932 212.085C120.424 211.946 118.498 211.2 119.678 189.536C134.113 189.536 145.963 180.117 157.848 172.919C171.832 179.32 206.116 191.236 224.247 187.801C225.079 195.191 224.958 202.198 225.669 209.344C225.692 209.473 225.76 209.589 225.86 209.672C225.959 209.756 226.086 209.802 226.216 209.802C226.346 209.802 226.472 209.756 226.572 209.672C226.672 209.589 226.739 209.473 226.762 209.344C227.218 202.043 226.921 194.713 225.878 187.472C238.456 184.488 246.177 175.625 248.224 161.853C249.057 161.298 249.959 160.673 250.896 159.962C261.636 164.246 283.861 174.671 294.722 175.053C294.219 183.118 293.508 191.635 293.386 199.995C293.411 200.137 293.484 200.265 293.593 200.357C293.703 200.449 293.842 200.5 293.985 200.5C294.128 200.5 294.267 200.449 294.377 200.357C294.486 200.265 294.559 200.137 294.584 199.995C294.826 197.688 296.405 178.001 296.319 175C313.703 174.602 316.445 160.378 311.24 143.969ZM187.43 69.835C187.898 69.2106 188.159 68.482 188.835 68.6902C191.264 69.4014 189.321 75.4376 187.291 78.1261C187.465 75.3682 187.517 72.5756 187.43 69.835ZM146.016 69.835C146.571 69.835 146.501 70.0778 147.751 70.3207L148.445 78.8893C145.877 76.513 144.02 69.8697 146.016 69.8697V69.835ZM266.563 68.1004C266.637 67.8566 266.804 67.652 267.029 67.5317C267.253 67.4113 267.517 67.3851 267.76 67.4587C268.004 67.5323 268.209 67.6997 268.329 67.9242C268.45 68.1486 268.476 68.4117 268.402 68.6555C267.795 70.8063 267.327 72.3674 266.928 73.8591C266.825 74.0447 266.681 74.204 266.506 74.3244C266.332 74.4448 266.131 74.523 265.921 74.553C264.395 74.605 266.025 69.6615 266.563 68.0658V68.1004ZM237.363 75.0386C238.352 74.2928 239.549 75.2468 239.74 75.2641C241.371 76.3048 243.21 74.7958 242.742 74.3622L242.395 74.0846C241.111 73.0786 238.474 70.9971 239.029 69.5748C239.445 68.4994 241.146 68.6555 242.256 68.6035C242.295 68.6023 242.334 68.5921 242.369 68.5738C242.404 68.5555 242.434 68.5295 242.458 68.4977C242.481 68.466 242.497 68.4293 242.504 68.3906C242.511 68.3518 242.509 68.3119 242.499 68.2739C242.325 67.7188 242.117 67.1638 241.909 66.5394C248.466 63.2883 255.655 61.5121 262.972 61.3357C263.718 63.0703 264.36 64.7181 264.932 66.3486C262.764 67.5801 260.3 68.933 259.727 71.3961C259.212 71.3321 258.689 71.3845 258.196 71.5496C257.704 71.7148 257.255 71.9883 256.882 72.3501C254.158 69.0718 242.881 69.3493 240.608 69.436C237.676 69.5575 245.414 75.4723 247.548 77.1374C254.713 82.7053 259.398 78.872 257.611 73.7898C257.861 73.4827 258.19 73.2494 258.563 73.115C258.936 72.9805 259.339 72.95 259.727 73.0266C259.792 73.3561 259.897 73.6765 260.04 73.9806C259.953 73.9378 259.858 73.9155 259.762 73.9155C259.666 73.9155 259.571 73.9378 259.485 73.9806C258.773 74.4315 259.485 75.0386 261.115 77.9353C260.914 78.1399 260.7 78.3311 260.473 78.5077C259.814 78.9934 260.387 81.1095 262.59 78.5077C262.92 78.1088 262.295 76.9466 261.601 75.9233C262.439 76.4939 263.442 76.7696 264.454 76.7068C265.466 76.644 266.428 76.2462 267.188 75.5763C267.946 80.2332 267.517 85.0061 265.939 89.4527C264.204 93.7023 259.849 93.9452 260.734 95.5583C260.963 101.277 260.497 107.002 259.346 112.609C254.887 111.638 246.108 100.762 242.603 95.7144C242.966 91.4968 242.422 87.2503 241.007 83.2604C239.844 81.2483 237.537 80.329 236.93 78.0567C236.693 77.55 236.607 76.9855 236.684 76.4315C236.761 75.8775 236.997 75.3575 237.363 74.9345V75.0386ZM263.666 72.1419C263.475 72.7143 263.354 73.5122 262.729 73.5122C262.104 73.5122 261.792 72.7837 261.861 72.1593C261.931 71.5348 262.104 70.0952 262.764 69.7136C262.89 69.6509 263.03 69.6183 263.171 69.6183C263.313 69.6183 263.452 69.6509 263.579 69.7136C264.395 69.9391 263.961 71.1532 263.666 72.0379V72.1419ZM254.314 76.1314C254.123 76.5997 253.933 77.4496 253.377 77.7098C253.28 77.7573 253.173 77.782 253.065 77.782C252.957 77.782 252.85 77.7573 252.753 77.7098C251.712 77.3282 252.857 73.4602 253.794 72.7143C253.876 72.6311 253.977 72.5698 254.089 72.5362C254.2 72.5025 254.319 72.4975 254.433 72.5217C254.547 72.546 254.653 72.5985 254.742 72.6746C254.83 72.7508 254.898 72.8479 254.939 72.9572C255.303 73.7551 254.418 75.7671 254.314 76.0273V76.1314ZM250.515 74.4489C250.289 74.8999 250.185 75.3162 249.595 75.3162C249.456 75.3258 249.317 75.3012 249.19 75.2446C249.063 75.188 248.952 75.1011 248.866 74.9915C248.781 74.8819 248.723 74.753 248.699 74.6161C248.675 74.4791 248.685 74.3383 248.728 74.206C248.918 73.6336 249.127 72.3327 249.821 71.9858C249.931 71.935 250.05 71.9073 250.171 71.9045C250.292 71.9016 250.412 71.9236 250.525 71.9691C250.637 72.0147 250.738 72.0828 250.823 72.1692C250.908 72.2556 250.974 72.3585 251.018 72.4715C251.261 73.0439 250.862 73.8244 250.515 74.4489ZM241.84 96.6858C246.767 105.185 259.745 117.5 260.751 113.372C261.886 108.472 262.411 103.45 262.313 98.4203C286.082 106.815 302.218 122.201 309.244 142.963C304.158 140.536 298.569 139.348 292.935 139.494C292.692 133.788 284.868 122.756 281.866 119.443C281.259 118.767 280.131 119.634 280.79 120.31C285.291 125.405 288.735 131.342 290.923 137.777C282.421 131.377 265.297 122.444 241.822 129.798C235.732 119.406 226.84 110.936 216.162 105.358C223.845 100.335 232.682 97.35 241.84 96.6858ZM151.359 57.5544C161.793 54.7074 172.755 54.3922 183.335 56.6351C183.157 59.5746 183.25 62.5242 183.613 65.4466H183.301C181.861 58.8206 172.63 56.7739 169.525 63.712C167.938 63.1741 166.219 63.1741 164.632 63.712C161.631 57.4677 152.938 59.4797 151.342 65.6547H151.012C151.377 62.9711 151.493 60.2594 151.359 57.5544ZM174.955 71.8297C175.268 70.9451 178.078 64.3885 179.9 64.1977C180.052 64.1958 180.202 64.23 180.337 64.2976C180.473 64.3651 180.591 64.464 180.681 64.5861C180.77 64.7082 180.83 64.8499 180.854 64.9995C180.878 65.1492 180.867 65.3024 180.82 65.4466C179.271 67.6524 177.89 69.9716 176.69 72.3848C176.257 73.4602 174.556 73.0439 174.955 71.8297ZM172.44 69.4014C172.231 69.9217 171.294 70.2339 170.965 69.6268C170.635 69.0198 171.433 66.7128 173.689 63.3304C174.261 62.4805 174.799 62.0642 175.268 62.1336C175.42 62.1771 175.56 62.2573 175.674 62.3671C175.788 62.4769 175.874 62.613 175.924 62.7636C175.973 62.9141 175.985 63.0745 175.959 63.2308C175.932 63.387 175.867 63.5344 175.771 63.66C174.45 65.444 173.333 67.3697 172.44 69.4014ZM157.345 72.2807C158.091 70.6502 158.924 69.0024 159.722 67.3893C159.807 67.2337 159.933 67.1039 160.085 67.0134C160.238 66.923 160.412 66.8753 160.59 66.8753C160.767 66.8753 160.941 66.923 161.094 67.0134C161.246 67.1039 161.372 67.2337 161.457 67.3893C161.566 67.5539 161.624 67.7469 161.624 67.9443C161.624 68.1417 161.566 68.3348 161.457 68.4994C160.694 70.0084 159.913 71.5869 159.08 73.1133C158.421 73.9806 156.825 73.3214 157.345 72.2807ZM155.246 70.0952L155.142 70.2166C154.604 70.9971 153.25 70.4941 153.615 69.5054C154.617 66.8404 155.896 64.2881 157.432 61.8908C158.178 60.9888 159.687 61.7694 159.167 62.8274C157.935 65.2905 156.426 67.5974 155.246 70.0952ZM149.052 70.2513C150.162 69.783 150.474 68.5167 150.787 67.424L151.151 67.3199C151.06 68.5232 151.208 69.7327 151.586 70.8787C151.964 72.0248 152.565 73.0848 153.355 73.9979C154.29 74.9166 155.463 75.5574 156.742 75.8487C158.021 76.14 159.355 76.0704 160.597 75.6477C161.838 75.225 162.938 74.4657 163.773 73.4547C164.608 72.4436 165.146 71.2205 165.326 69.9217C165.147 71.5921 165.071 73.2721 165.101 74.9519C165.101 75.9926 164.858 77.2935 166.142 77.3803H167.877C168.779 77.3803 169.022 75.8192 167.981 75.8018H166.697C166.596 72.7113 166.764 69.618 167.2 66.5567C167.321 65.7068 166.089 65.5854 165.916 66.3833C165.153 70.1125 165.916 67.979 165.239 65.2211C166.451 64.7869 167.775 64.7869 168.987 65.2211C168.605 66.6117 168.53 68.0687 168.766 69.4913C169.003 70.9139 169.546 72.268 170.358 73.4602C170.976 74.2609 171.759 74.9195 172.654 75.3912C173.549 75.863 174.535 76.1369 175.545 76.1945C176.556 76.2521 177.566 76.0919 178.509 75.7249C179.452 75.3579 180.305 74.7926 181.01 74.0673C182.715 72.1657 183.622 69.6813 183.544 67.1291H183.873C184.081 68.6381 184.394 70.7196 185.99 70.5982C185.816 76.5303 186.337 86.6948 181.635 90.4067C181.028 90.8924 180.334 91.4474 180.247 92.0025C180.03 93.8405 180.03 95.6977 180.247 97.5357C180.75 102.34 172.335 111.846 167.981 115.905C159.583 104.491 157.172 103.364 157.189 93.3554C157.189 92.3494 157.067 92.1933 156.373 91.8464C149.347 88.4467 149.989 78.6465 149.052 70.2513ZM155.541 96.9633C155.732 102.288 159.913 109.487 167.287 117.24C168.779 119.183 181.965 103 181.704 99.4957V96.5643C217.22 100.745 242.672 121.178 246.732 148.722C231.985 145.825 213.351 149.225 210.193 149.832C208.839 141.206 206.287 132.811 202.611 124.889C202.549 124.735 202.428 124.612 202.275 124.547C202.122 124.482 201.95 124.48 201.796 124.543C201.642 124.605 201.518 124.725 201.453 124.878C201.388 125.031 201.387 125.204 201.449 125.358C204.639 133.176 206.966 141.319 208.389 149.641C199.263 140.032 185.383 135.765 166.037 136.632C154.393 137.172 142.827 138.816 131.494 141.541C132.4 136.252 134.56 131.256 137.792 126.971C137.862 126.842 137.884 126.691 137.852 126.547C137.82 126.404 137.737 126.276 137.618 126.189C137.499 126.102 137.352 126.061 137.206 126.074C137.059 126.087 136.922 126.153 136.82 126.26C133.174 130.763 130.781 136.148 129.88 141.871C117.301 144.887 105.085 149.255 93.445 154.897C95.0412 120.917 126.462 102.705 155.541 96.9633ZM80.2937 64.8395C80.2759 66.4864 80.3745 68.1326 80.5887 69.7656C74.3427 69.9217 64.4185 72.3501 57.0274 74.6397C56.8365 73.1133 56.4028 70.338 56.3854 68.6902C63.8223 65.1467 72.1199 63.8103 80.2937 64.8395ZM74.7764 74.154C71.3064 80.0515 72.0525 81.0922 70.89 81.0922C70.7596 81.1001 70.6291 81.0766 70.5097 81.0236C70.3903 80.9707 70.2853 80.8898 70.2037 80.7877C70.122 80.6857 70.0661 80.5656 70.0406 80.4375C70.0151 80.3093 70.0208 80.1769 70.0572 80.0515C71.6361 74.0846 73.1455 72.9745 73.9089 72.8358C74.0753 72.8019 74.2481 72.8186 74.4049 72.8838C74.5617 72.949 74.6954 73.0596 74.7888 73.2015C74.8821 73.3433 74.9308 73.5098 74.9286 73.6796C74.9264 73.8494 74.8734 74.0146 74.7764 74.154ZM69.4153 75.4549C68.7733 76.513 68.6172 77.9874 67.6803 77.7619C66.7434 77.5364 67.42 75.4202 67.9752 74.2928C68.5304 73.1653 69.0162 73.148 69.3459 73.2347C69.5316 73.2852 69.6969 73.3927 69.8183 73.5421C69.9397 73.6915 70.0111 73.8752 70.0225 74.0673C69.9545 74.5777 69.744 75.0586 69.4153 75.4549ZM56.5069 78.924C56.316 79.375 56.2987 80.7626 55.3618 80.7626C55.1794 80.7697 55 80.7154 54.8522 80.6085C54.7043 80.5016 54.5966 80.3482 54.5463 80.1729C54.4545 78.9594 54.8405 77.7582 55.622 76.8252C55.7832 76.6812 55.9858 76.5919 56.2009 76.5701C56.4159 76.5483 56.6324 76.5951 56.8192 76.7038C57.2356 76.9813 57.1488 77.7098 56.5069 78.872V78.924ZM57.1488 82.9655C58.7277 77.2935 59.6299 76.461 60.1677 76.3395C60.2783 76.3141 60.3938 76.32 60.5011 76.3568C60.6084 76.3936 60.7033 76.4597 60.775 76.5477C61.0108 76.821 61.1293 77.1763 61.1046 77.5364L58.8144 83.4512C58.7431 83.672 58.5869 83.8554 58.3803 83.9612C58.1737 84.0669 57.9336 84.0862 57.7127 84.0149C57.4918 83.9436 57.3083 83.7875 57.2026 83.5809C57.0968 83.3744 57.0775 83.1343 57.1488 82.9135V82.9655ZM58.8838 85.5847C62.215 84.6133 63.2907 84.8909 62.9264 79.826C62.8049 78.3863 62.5273 75.108 63.9847 75.16C65.1645 75.16 65.1992 80.6412 66.9516 82.3411C68.7039 84.0409 70.9768 82.8441 72.8853 82.3411C78.0903 80.9187 76.9452 78.6985 76.5635 71.8124L80.9357 71.4655C82.8962 81.6299 85.5334 74.0152 87.3031 72.8704C88.4309 72.1593 89.4025 73.7204 89.6107 74.9172C90.0097 77.4843 87.8757 80.2943 88.3268 84.0583C89.3492 89.5062 91.0999 94.7919 93.5318 99.7733C89.7321 106.989 78.819 113.65 73.961 116.286C71.9137 108.862 71.7402 99.1141 70.491 99.1488C64.7308 99.1835 60.9485 94.8298 58.8144 85.5326L58.8838 85.5847ZM70.3001 104.838C70.6124 107.457 71.8963 118.714 73.7701 117.778C78.4893 115.558 92.8551 106.122 94.9024 100.051C97.9387 100.745 107.412 98.906 122.125 107.77C111.267 114.253 102.555 123.783 97.0712 135.175C83.035 133.441 65.6677 131.273 51.0763 138.974C55.5353 128.463 58.2072 127.422 56.9406 126.589C56.875 126.544 56.8011 126.513 56.7232 126.498C56.6453 126.482 56.565 126.483 56.4873 126.499C56.4095 126.515 56.3358 126.547 56.2706 126.592C56.2054 126.637 56.15 126.695 56.1078 126.763C55.6567 127.439 49.324 137.899 49.1678 140.032C46.7215 141.524 41.4991 145.34 39.9376 148.341C33.5592 148.465 27.3437 150.376 21.9977 153.856C27.2721 133.441 43.9455 116.494 70.2307 104.786L70.3001 104.838ZM25.3116 180.586C18.6839 173.648 20.1066 162.043 21.4772 155.678C38.4108 144.559 60.7923 149.312 88.0318 169.832C78.871 173.752 38.8446 194.618 25.3116 180.586ZM41.69 148.306C55.4659 133.059 75.3837 134.031 96.3598 136.615C90.9813 149.017 90.5129 162.113 95.0065 172.798C79.3915 161.107 60.9485 148.254 41.69 148.254V148.306ZM119.557 188.2C102.467 188.2 93.2889 173.197 93.5318 156.545C117.822 145.635 139.041 140.049 162.29 138.436C183.526 136.962 197.823 140.83 207.192 150.578C161.422 160.829 142.528 188.148 119.557 188.148V188.2ZM224.49 186.292C207.504 190.126 179.38 180.1 159.392 172.104C191.247 153.301 219.909 146.207 246.958 150.422C249.092 169.797 241.111 182.528 224.49 186.292ZM248.554 160.031C249.455 150.002 247.334 139.932 242.464 131.116C261.098 126.294 276.835 129.104 290.506 139.685C272.549 141.021 254.453 155.036 248.537 160.031H248.554ZM295.746 173.509C285.128 173.509 262.781 163.102 252.492 158.904C263.492 150.578 276.522 141.749 292.207 141.125C298.334 140.746 304.445 142.086 309.852 144.993C314.501 160.673 312.176 173.405 295.729 173.509H295.746Z" fill="black"/>
</svg>
