<svg width="672" height="672" viewBox="0 0 672 672" fill="none" xmlns="http://www.w3.org/2000/svg">
<path d="M457.128 102.447C457.11 102.403 457.08 102.366 457.041 102.34C457.002 102.313 456.956 102.299 456.909 102.299C456.862 102.299 456.816 102.313 456.778 102.34C456.739 102.366 456.708 102.403 456.691 102.447C456.691 104.53 453.667 105.807 454.507 108.159C454.877 109.167 456.254 109.873 457.027 108.865C457.054 108.815 457.07 108.76 457.073 108.703C457.075 108.646 457.065 108.59 457.042 108.538C457.019 108.486 456.985 108.44 456.942 108.403C456.898 108.367 456.847 108.341 456.792 108.327H456.422C454.809 108.327 454.809 107.185 456.624 104.967C456.899 104.616 457.088 104.205 457.175 103.767C457.263 103.329 457.247 102.877 457.128 102.447ZM464.251 99.0535C464.453 99.5911 465.326 99.4231 465.427 98.8855C465.426 97.7514 465.279 96.6222 464.99 95.5255C464.99 95.4007 464.941 95.2811 464.852 95.1929C464.764 95.1046 464.645 95.0551 464.52 95.0551C464.395 95.0551 464.275 95.1046 464.187 95.1929C464.099 95.2811 464.049 95.4007 464.049 95.5255C463.829 96.7004 463.898 97.9113 464.251 99.0535ZM448.929 96.4663C448.929 97.5079 448.929 99.5575 449.971 100.196C450.021 100.223 450.076 100.239 450.133 100.242C450.189 100.244 450.246 100.234 450.298 100.211C450.35 100.188 450.396 100.154 450.432 100.11C450.469 100.067 450.495 100.016 450.509 99.9607C450.342 98.8245 450.095 97.7017 449.769 96.6007C449.702 95.9623 448.929 95.9287 448.929 96.4663ZM445.704 92.4007C445.641 92.5032 445.622 92.6262 445.651 92.7428C445.679 92.8594 445.753 92.9599 445.855 93.0223C445.957 93.0847 446.08 93.1038 446.197 93.0754C446.314 93.0471 446.414 92.9736 446.477 92.8711C446.981 92.1991 449.837 90.2167 450.173 89.5111C450.216 89.4581 450.245 89.3939 450.254 89.3258C450.263 89.2577 450.253 89.1883 450.226 89.1254C450.198 89.0626 450.153 89.0088 450.096 88.9701C450.039 88.9314 449.972 88.9093 449.904 88.9063C448.056 88.8727 446.443 90.9559 445.704 92.4007ZM464.587 87.9991C466.267 88.2007 467.141 89.5447 467.947 90.8215C468.003 90.9191 468.09 90.9952 468.194 91.0376C468.299 91.0799 468.414 91.0861 468.523 91.0552C468.631 91.0243 468.726 90.958 468.792 90.8669C468.858 90.7758 468.892 90.6652 468.888 90.5527C468.888 88.3687 466.502 87.0247 464.52 86.9911C463.915 86.9575 463.949 87.9319 464.587 87.9991ZM498.187 201.601C505.411 201.164 512.501 199.114 519.725 198.476C520.296 198.476 520.296 197.501 519.725 197.569C512.433 198.212 505.214 199.505 498.153 201.433L498.187 201.601ZM463.411 203.045C463.949 203.045 463.713 202.138 463.176 202.205C455.683 203.381 448.157 204.725 440.697 206.137C440.496 206.137 440.697 206.506 440.697 206.506C448.325 205.465 455.918 204.356 463.411 203.045ZM352.598 394.565L299.04 357.27L288.893 374.17L360.225 421.345L419.966 310.767L402.763 302.703L352.598 394.565Z" fill="#2C2768"/>
<path d="M443.284 262.349C442.377 260.064 441.94 260.367 439.521 259.863C435.523 258.989 431.491 258.216 427.459 257.41C414.96 254.89 402.696 250.69 390.499 247.33C378.166 244.022 366.112 239.753 354.446 234.562C351.086 233.084 347.995 231.639 344.904 229.892C343.056 228.816 339.225 225.456 337.176 225.591C336 225.591 336.571 225.591 335.227 226.733C332.707 229.085 330.254 231.404 327.6 233.453C317.217 241.542 306.168 248.735 294.571 254.957C276.738 265.768 258.168 275.312 238.996 283.517C238.863 283.554 238.745 283.632 238.66 283.741C238.575 283.85 238.528 283.984 238.526 284.122C236.805 304.072 238.672 324.168 244.036 343.46C249.044 362.913 255.067 382.092 262.08 400.916C274.579 435.087 293.227 466.839 320.812 490.729C349.608 515.693 374.572 520.061 374.808 519.826C384.91 512.136 394.168 503.396 402.427 493.753C421.566 472.403 436.479 447.616 446.376 420.706C452.409 403.942 456.194 386.452 457.632 368.693C459.513 345.173 456.153 321.956 452.088 298.671C450.462 286.283 447.511 274.106 443.284 262.349ZM452.155 396.749C447.605 418.878 438.98 439.968 426.72 458.943C395.841 504.437 374.707 518.516 374.371 518.751C343.169 508.177 315.931 488.345 296.284 461.9C287.005 449.698 279.031 436.555 272.496 422.689C265.292 406.515 259.109 389.907 253.982 372.961C248.403 356.786 244.078 340.206 241.046 323.367C239.574 314.417 238.888 305.355 238.996 296.285C238.996 294.135 239.4 284.794 239.366 284.828C239.702 284.256 264.398 273.706 274.814 267.792C288.96 259.594 303.609 252 317.184 242.727C323.129 238.796 328.747 234.391 333.984 229.556C335.865 227.808 336.604 226.901 339.158 227.943C340.939 228.648 351.489 234.663 355.185 236.175C370.03 242.433 385.328 247.555 400.948 251.496C409.113 253.815 417.278 256.469 425.577 258.216C430.834 259.037 436.039 260.159 441.168 261.576C443.083 262.786 446.913 278.074 447.888 282.106C449.702 290.439 451.046 298.906 452.491 307.239C457.564 337.21 458.942 366.879 452.155 396.816V396.749ZM220.584 124.119C220.533 124.175 220.499 124.244 220.486 124.318C220.473 124.392 220.481 124.469 220.509 124.539C220.537 124.609 220.584 124.669 220.644 124.714C220.705 124.758 220.777 124.785 220.852 124.791C221.467 124.714 222.038 124.434 222.476 123.996C222.915 123.558 223.194 122.986 223.272 122.372C223.272 121.8 221.222 119.28 220.886 118.138C220.865 118.079 220.827 118.027 220.776 117.991C220.724 117.955 220.663 117.935 220.6 117.935C220.538 117.935 220.476 117.955 220.425 117.991C220.374 118.027 220.335 118.079 220.315 118.138C220.012 119.112 222.297 121.868 222.163 122.607C222.028 123.346 221.088 123.615 220.584 124.119ZM226.766 113.232C226.446 114.322 226.31 115.458 226.363 116.592C226.363 117.567 227.875 117.567 227.908 116.592C228.061 115.459 227.934 114.306 227.539 113.232C227.502 113.162 227.446 113.103 227.378 113.062C227.31 113.021 227.232 112.999 227.152 112.999C227.073 112.999 226.995 113.021 226.927 113.062C226.859 113.103 226.803 113.162 226.766 113.232ZM213.091 113.132C212.779 114.23 212.779 115.393 213.091 116.492C213.091 117.197 214.435 117.096 214.368 116.492C214.3 115.887 214.132 114.408 213.998 113.367C214.029 113.247 214.011 113.119 213.948 113.012C213.885 112.905 213.782 112.827 213.662 112.796C213.542 112.765 213.414 112.782 213.307 112.845C213.2 112.908 213.122 113.011 213.091 113.132ZM210.235 112.191C210.772 111.485 213.595 109.268 213.998 108.629C214.067 108.563 214.112 108.476 214.126 108.381C214.14 108.287 214.123 108.19 214.078 108.106C214.032 108.022 213.96 107.956 213.873 107.917C213.785 107.878 213.688 107.868 213.595 107.89C211.802 108.549 210.302 109.823 209.361 111.485C208.992 112.023 209.832 112.661 210.235 112.191ZM226.094 108.293C227.315 108.908 228.446 109.688 229.454 110.612C229.52 110.679 229.604 110.725 229.696 110.744C229.788 110.762 229.884 110.753 229.971 110.717C230.058 110.681 230.132 110.619 230.183 110.541C230.235 110.462 230.262 110.37 230.26 110.276C230.26 109.402 226.9 107.453 225.993 107.52C225.911 107.554 225.842 107.614 225.797 107.691C225.753 107.768 225.735 107.857 225.746 107.946C225.758 108.034 225.798 108.116 225.861 108.179C225.924 108.241 226.006 108.282 226.094 108.293ZM210.436 129.461H210.134C210.134 131.612 214.905 135.98 221.256 133.258C221.558 133.258 221.256 132.62 221.02 132.72C219.153 133.497 217.073 133.596 215.14 133.001C213.207 132.406 211.543 131.154 210.436 129.461ZM81.7147 413.281C70.5931 414.389 59.2027 412.642 48.1147 414.02C48.1147 414.02 47.8795 414.221 47.8795 414.322C47.0002 423.485 47.1806 432.719 48.4171 441.841C48.424 441.924 48.4515 442.004 48.497 442.074C48.5426 442.144 48.6048 442.201 48.6781 442.241C48.7514 442.281 48.8334 442.302 48.9169 442.303C49.0004 442.303 49.0827 442.283 49.1563 442.244C59.9755 442.815 71.2987 442.445 82.1515 441.941C82.4539 441.941 82.5883 441.269 82.5883 441.202C82.9137 432.026 82.7343 422.84 82.0507 413.684C82.0554 413.635 82.0503 413.586 82.0359 413.54C82.0215 413.493 81.998 413.45 81.9667 413.412C81.9355 413.375 81.8971 413.344 81.8539 413.321C81.8106 413.299 81.7633 413.285 81.7147 413.281ZM49.1227 422.991C49.1227 420.168 49.1227 417.346 48.9211 414.49C59.5566 415.036 70.2149 414.957 80.8411 414.255C80.5777 417.529 80.4992 420.816 80.6059 424.1C70.1375 423.195 59.6276 422.858 49.1227 423.092V422.991ZM49.8283 441.101C49.3243 435.49 49.2571 429.913 49.1899 424.301C54.1627 424.301 59.2699 424.503 64.1083 424.637C63.7042 429.918 64.0093 435.229 65.0155 440.429C59.9401 440.214 54.8556 440.472 49.8283 441.202V441.101ZM66.6283 440.53C66.6283 437.54 65.8555 426.855 65.4187 424.536C70.4251 424.536 80.5723 425.376 80.6059 425.376C80.6059 430.484 81.1099 435.624 81.2107 440.664C76.5403 441 71.6011 440.765 66.7291 440.631L66.6283 440.53Z" fill="#2C2768"/>
<path d="M652.915 435.792C652.221 431.166 649.94 426.926 646.464 423.797C642.264 420.605 636.686 421.142 631.747 421.31C624.355 421.546 609.134 422.99 609.134 422.957C606.581 415.8 604.329 408.475 601.372 401.52C599.341 395.599 595.105 390.689 589.545 387.811C584.102 385.459 558.566 387.274 546.739 388.349C555.643 358.915 556.113 318.226 556.113 310.363C557.347 309.533 558.408 308.472 559.238 307.238C561.893 302.837 560.044 296.05 559.641 291.312C558.499 278.443 557.793 265.373 555.979 252.571C559.411 249.079 562.412 245.187 564.917 240.979C573.048 227.304 573.081 212.083 569.318 196.93C565.555 181.776 554.937 170.05 543.009 159.768C531.161 149.008 516.441 141.922 500.64 139.373C499.015 136.533 497.137 133.845 495.029 131.342L492.072 133.056C492.072 128.52 490.19 109.099 490.19 109.099C492.945 108.36 498.389 100.397 499.229 94.5504C499.631 88.8542 498.635 83.146 496.328 77.9224C494.02 72.6989 490.472 68.1183 485.99 64.5792C473.558 54.4992 449.03 59.2368 443.621 63.336C442.135 64.5089 440.418 65.3547 438.582 65.8179C436.747 66.2812 434.834 66.3514 432.969 66.024C432.969 66.024 437.472 70.5264 434.717 71.3664C431.961 72.2064 430.08 67.6368 430.08 67.6368C429.441 76.776 433.104 79.0608 433.104 79.0608C445.166 92.0304 454.272 81.648 454.272 81.648C454.272 81.648 455.515 77.616 468.484 80.5392C470.155 80.7775 471.756 81.3665 473.182 82.2674C474.609 83.1683 475.828 84.3608 476.761 85.7666C477.694 87.1723 478.319 88.7595 478.595 90.424C478.871 92.0884 478.792 93.7924 478.363 95.424L480.009 96.096C480.628 95.1964 481.325 94.3531 482.092 93.576C489.417 88.5024 491.299 96.1968 491.299 96.1968C492.777 102.446 485.083 104.261 485.083 104.261C485.284 112.93 483.705 114.341 483.705 114.341C477.456 121.834 471.105 113.702 471.105 113.702C469.702 112.086 467.934 110.828 465.947 110.034C463.96 109.239 461.812 108.93 459.681 109.133C451.752 109.469 452.961 111.989 449.601 114.442C447.484 115.987 445.334 114.24 444.024 112.795C444.024 109.939 442.881 98.7504 442.243 95.9952V86.2176C439.89 85.5301 437.743 84.272 435.993 82.5552C432.633 92.6352 439.79 95.7264 441.772 96.432C442.008 99.4896 440.899 122.774 445.133 131.51C446.265 133.94 447.98 136.051 450.126 137.657C452.271 139.263 454.78 140.314 457.43 140.717C457.061 142.699 456.691 145.992 456.624 146.899C448.358 148.109 441.672 153.418 435.254 158.424C427.554 164.308 420.412 170.887 413.918 178.08C402.219 190.776 394.609 206.698 392.078 223.776L380.553 220.416C380.72 219.677 380.799 218.922 380.789 218.165C380.778 216.813 380.36 215.495 379.59 214.384C378.819 213.274 377.731 212.421 376.468 211.939C375.205 211.456 373.826 211.365 372.51 211.679C371.195 211.992 370.005 212.695 369.096 213.696C368.433 214.615 367.954 215.653 367.685 216.754C367.685 216.754 348.398 208.219 338.755 204.086C336.708 202.761 334.219 202.302 331.833 202.81C328.142 204.785 324.868 207.454 322.19 210.672V210.47C318.83 206.338 311.438 206.674 310.363 212.688C310.154 214.443 310.433 216.222 311.169 217.829C309.489 219.072 307.809 220.382 305.861 221.659C301.156 210.034 296.688 197.904 289.061 188.059C282.722 179.63 275.077 172.268 266.414 166.253C254.531 157.787 240.208 153.433 225.624 153.854L224.75 151.738C224.75 150.36 224.481 148.982 224.313 147.638C235.233 148.546 240.912 132.115 240.912 132.115C241.296 134.953 241.009 137.842 240.072 140.549C240.072 140.549 251.16 124.622 244.608 98.1792C238.056 71.736 214.368 77.28 214.368 77.28C186.245 60.984 171.629 90.1824 171.629 90.1824C154.493 131.645 185.069 148.982 185.069 148.982C182.112 146.765 183.053 141.792 183.053 141.792C184.586 143.959 186.594 145.748 188.923 147.023C191.252 148.298 193.84 149.026 196.493 149.15C196.493 150.192 196.123 151.334 196.022 152.51L195.317 154.997C166.051 165.312 140.28 184.296 130.233 214.738C125.462 229.152 125.16 244.138 132.417 257.813C138.515 268.912 148.567 277.309 160.574 281.333C160.429 283.301 160.738 285.276 161.478 287.105C162.218 288.935 163.369 290.57 164.841 291.883C162.557 292.925 156.677 297.158 153.317 313.958C151.939 320.88 149.385 332.976 146.597 346.114C131.913 334.622 110.342 317.083 110.006 317.352C78.4893 342.72 16.9677 396.211 16.9677 396.278C16.9007 396.333 16.8516 396.407 16.8264 396.49C16.8013 396.572 16.8013 396.661 16.8265 396.744C16.8517 396.826 16.901 396.9 16.968 396.955C17.035 397.009 17.1168 397.043 17.2029 397.051C22.2765 397.488 27.2829 397.79 32.4909 397.958C32.4909 429.173 35.1117 492.038 35.2461 492.038H23.5197C23.2848 497.31 23.4871 502.592 24.1245 507.83C47.3085 507.83 134.635 507.226 165.715 506.621C166.723 521.438 167.966 539.246 167.966 539.246C165.917 540.053 157.113 545.294 154.358 546.504C150.662 548.117 147.638 550.099 148.109 554.568C148.266 554.744 148.461 554.882 148.68 554.971C160.79 555.88 172.964 555.406 184.968 553.56C185.234 553.473 185.46 553.295 185.606 553.056C186.564 549.661 186.564 546.068 185.606 542.674L200.625 480.178C202.843 471.341 211.008 436.094 213.024 427.392C221.49 427.34 229.948 426.824 238.358 425.846C241.718 436.128 251.126 475.44 254.889 483.84C258.653 492.24 259.056 495.701 259.123 495.734C268.699 498.422 276.629 501.816 288.12 492.374C288.222 492.272 288.361 492.214 288.506 492.214C288.651 492.214 288.79 492.272 288.893 492.374C288.995 492.477 289.053 492.616 289.053 492.761C289.053 492.906 288.995 493.045 288.893 493.147C281.971 500.573 267.355 501.547 259.022 495.97L273.638 538.944C272.721 543.241 272.721 547.684 273.638 551.981C273.638 552.25 295.613 551.981 306.398 551.678C306.734 551.678 307.003 551.006 307.003 550.939C307.1 549.269 306.695 547.607 305.838 546.17C304.981 544.732 303.714 543.585 302.198 542.875C300.249 541.766 291.48 537.566 289.128 536.39V486.528C293.323 492.052 297.94 497.242 302.937 502.051C314.428 512.489 326.793 521.92 339.897 530.242C351.657 538.138 364.056 545.966 377.731 550.032C378 550.032 413.885 526.982 432.936 498.59V511.526C434.451 513.088 436.334 514.244 438.413 514.886C438.682 517.675 439.109 520.445 439.689 523.186C434.784 526.546 427.224 531.653 425.947 537.768C425.787 538.33 425.747 538.919 425.828 539.498C425.909 540.076 426.11 540.632 426.417 541.128C424.67 549.494 443.52 547.848 447.552 547.31C452.793 546.605 471.072 545.563 467.98 536.189C467.98 536.189 468.955 524.429 465.662 522.379C465.964 519.666 465.964 516.928 465.662 514.214C470.366 513.206 473.659 512.198 473.659 512.198L477.825 408.038C485.587 448.022 517.171 515.29 517.171 515.29C519.597 515.643 522.044 515.822 524.496 515.827C525.445 518.148 526.568 520.395 527.856 522.547C525.269 525 512.03 537.634 519.153 541.968C520.699 550.234 533.702 545.63 538.507 543.581C541.531 542.304 559.876 533.501 554.064 528.696C554.064 528.696 549.729 518.246 548.251 517.675C547.962 514.926 547.353 512.219 546.437 509.611C548.171 508.523 549.782 507.25 551.241 505.814C551.241 505.814 547.881 486.427 544.521 466.939C562.129 467.447 579.748 466.401 597.172 463.814C597.408 463.814 597.576 463.478 597.609 463.243C597.609 458.741 597.912 453.97 601.406 450.677C604.533 448.129 608.276 446.448 612.259 445.805C622.877 443.52 627.446 450.643 630.134 459.614C630.134 459.85 646.766 458.842 654.83 459.144C655.267 459.144 655.435 458.203 655.435 458.102C655.388 450.597 654.543 443.119 652.915 435.792ZM456.96 79.5984C452.457 82.1856 446.712 78.3216 445.334 73.92C445.334 73.6848 445.603 73.5168 445.737 73.752C446.813 75.7008 451.113 80.6736 456.691 78.624C456.96 78.456 457.329 79.3632 456.96 79.5984ZM537.163 156.542C548.923 165.48 561.288 176.904 566.395 191.083C571.502 205.262 572.913 222.902 565.891 236.914C559.097 249.578 548.364 259.686 535.315 265.709C520.377 272.58 504.113 276.09 487.67 275.99C487.584 275.957 487.488 275.957 487.401 275.99C484.26 269.614 480.572 263.52 476.38 257.779C495.235 245.742 514.717 234.717 534.744 224.75C534.823 224.703 534.884 224.632 534.921 224.548C534.957 224.463 534.965 224.37 534.945 224.28C532.895 217.364 531.533 210.262 530.88 203.078C530.88 202.776 530.376 202.742 530.376 203.078C530.532 208.822 531.298 214.532 532.661 220.114C533.333 223.003 534.945 223.474 532.459 224.918C527.621 227.438 496.07 244.205 485.419 250.723C484.949 245.011 483.369 218.467 483.437 218.4C488.04 210.706 505.478 178.987 510.317 171.36C510.354 171.323 510.384 171.278 510.404 171.229C510.425 171.18 510.435 171.128 510.435 171.074C510.435 171.021 510.425 170.969 510.404 170.92C510.384 170.871 510.354 170.826 510.317 170.789C508.279 167.469 505.829 164.421 503.025 161.717C506.769 158.8 510.826 156.309 515.121 154.291C515.491 154.291 515.928 153.989 515.659 153.586C512.909 149.162 509.687 145.05 506.049 141.322C517.333 144.184 527.895 149.368 537.062 156.542H537.163ZM468.619 273.269C462.269 278.947 461.899 275.688 461.731 274.646C464.088 273.394 466.268 271.835 468.216 270.01C468.216 270.01 468.014 269.472 467.846 269.606C466.469 270.547 458.774 277.032 458.774 273.168C461.275 270.065 464.166 267.298 467.376 264.936C466.905 264.029 465.225 264.936 464.789 259.325C466.906 260.928 469.491 261.79 472.147 261.778C473.739 261.86 475.319 261.462 476.683 260.635C477.908 263.188 479.3 265.657 480.849 268.027C478.733 270.062 476.489 271.959 474.129 273.706C472.013 275.184 467.409 278.846 464.721 277.066C466.271 276.043 467.753 274.921 469.157 273.706C469.224 273.504 468.72 273.101 468.518 273.269H468.619ZM505.176 141.12C506.419 143.17 513.173 151.502 514.886 153.854C510.24 155.364 506.07 158.063 502.79 161.683L509.846 170.923C500.909 186.278 490.392 201.163 483.403 217.661C485.848 191.761 491.167 166.213 499.262 141.49L500.472 140.213L505.176 141.12ZM494.861 132.115C496.238 134.736 498.221 136.954 499.665 139.642C495.163 144.346 490.19 148.445 485.452 153.082C483.675 148.999 481.419 145.141 478.732 141.59C484.462 139.103 489.875 135.945 494.861 132.182V132.115ZM476.112 139.608C486.696 137.29 489.35 123.782 490.022 115.517C490.022 117.197 490.694 128.957 491.198 133.19C491.18 133.268 491.18 133.348 491.198 133.426L478.128 141.12C476.68 143.774 475.445 146.538 474.432 149.386C473.299 146.392 471.952 143.483 470.4 140.683C472.315 140.448 474.163 140.112 476.112 139.675V139.608ZM473.995 150.898C473.982 150.968 473.982 151.041 473.997 151.111C474.012 151.181 474.04 151.248 474.081 151.307C474.122 151.367 474.173 151.417 474.234 151.457C474.294 151.496 474.361 151.523 474.432 151.536C474.502 151.549 474.575 151.548 474.645 151.534C474.715 151.519 474.782 151.49 474.841 151.45C474.901 151.409 474.951 151.357 474.991 151.297C475.03 151.237 475.057 151.17 475.07 151.099C476.078 148.042 477.557 145.085 478.43 142.027C480.297 146.128 482.547 150.043 485.15 153.72C489.79 150.384 494.161 146.688 498.22 142.666C487.166 167.093 483 202.037 482.361 213.528C479.673 203.448 467.678 162.389 463.243 152.41C464.372 153.115 465.648 153.552 466.973 153.686C467.812 152.242 469.392 143.371 470.332 140.918C470.4 141.422 473.222 148.982 473.995 150.965V150.898ZM458.438 121.8C459.167 122.015 459.933 122.075 460.686 121.977C461.44 121.878 462.164 121.623 462.813 121.227C463.462 120.831 464.021 120.304 464.454 119.68C464.886 119.055 465.184 118.347 465.326 117.6C465.326 117.163 466.233 117.398 466.166 117.835C465.192 123.984 459.446 123.514 458.337 122.035C458.27 122.002 458.337 121.867 458.438 121.867V121.8ZM458.237 140.818C462.058 141.369 465.94 141.369 469.761 140.818C468.224 144.664 467.01 148.631 466.133 152.678C465.124 152.006 459.211 148.579 457.397 147.37C457.43 147.302 458.102 143.237 458.237 140.885V140.818ZM456.96 147.84C458.536 149.316 460.271 150.612 462.134 151.704C465.057 162.893 478.934 205.262 481.656 215.544C477.456 209.563 455.044 185.304 449.433 178.114C451.056 174.498 452.448 170.784 453.6 166.992C450.658 165.851 447.607 165.018 444.494 164.506C447.865 159.707 450.545 154.459 452.457 148.915C453.835 148.445 456.96 147.84 456.96 147.84ZM392.817 223.843C395.785 207.058 403.331 191.419 414.624 178.651C420.04 172.56 425.964 166.94 432.331 161.851C438.032 156.572 444.572 152.279 451.684 149.15C448.761 154.157 445.973 160.138 442.781 165.043C442.512 165.48 449.736 166.858 452.625 167.866C451.987 168.941 449.097 176.4 448.257 178.416C448.257 178.651 477.153 211.008 482.429 218.434C481.992 223.608 484.982 251.093 485.016 251.126C481.891 253.042 478.564 255.226 475.574 257.309C475.305 257.309 476.313 259.09 476.616 259.728C475.371 260.348 474.007 260.692 472.617 260.736C472.987 253.579 472.348 245.28 466.233 240.576C463.549 238.646 460.389 237.484 457.094 237.216C451.752 236.544 446.409 236.242 441.067 235.469C438.782 235.133 436.464 234.73 434.179 234.293V234.091C432.323 223.819 431.602 213.374 432.029 202.944C432.029 202.675 431.592 202.574 431.524 202.944C430.285 213.359 430.785 223.907 433.003 234.158C419.328 231.571 406.123 227.674 392.683 223.81L392.817 223.843ZM368.457 217.123C368.775 215.534 369.674 214.121 370.977 213.158C371.996 212.505 373.195 212.192 374.403 212.265C375.611 212.337 376.764 212.791 377.697 213.562C378.721 214.438 379.457 215.602 379.81 216.902C380.164 218.202 380.118 219.579 379.68 220.853C379.209 222.432 376.689 227.102 374.673 223.373C374.794 223.101 374.895 222.82 374.976 222.533C375.304 221.081 375.55 219.611 375.715 218.131C375.312 219.475 375.077 220.92 374.606 222.23C374.501 222.646 374.309 223.035 374.043 223.371C373.776 223.707 373.442 223.983 373.061 224.179C371.985 224.549 371.179 223.709 370.776 222.802C371.425 220.787 371.82 218.698 371.952 216.586C371.759 218.802 371.167 220.964 370.204 222.97C369.533 224.179 368.256 224.314 367.819 222.97C367.736 222.514 367.736 222.047 367.819 221.592C367.866 220.072 368.08 218.562 368.457 217.09V217.123ZM320.813 210.403C321.115 210.706 321.384 211.042 321.686 211.411C321.689 211.462 321.706 211.512 321.736 211.553C321.766 211.595 321.807 211.627 321.854 211.646C322.557 212.545 323.102 213.556 323.467 214.637C323.904 215.981 324.811 219.307 322.022 217.997C321.181 216.807 320.248 215.683 319.233 214.637C319.032 214.637 319.233 214.637 319.233 214.637C319.838 215.712 324.643 222.331 319.233 220.853C318.718 219.294 317.895 217.855 316.814 216.619C316.755 216.577 316.683 216.556 316.61 216.558C316.538 216.56 316.467 216.586 316.411 216.632C316.354 216.677 316.313 216.74 316.295 216.81C316.277 216.881 316.282 216.955 316.31 217.022C316.982 218.568 320.745 224.347 316.31 222.802C313.785 221.311 311.931 218.904 311.136 216.082C310.62 214.819 310.576 213.414 311.011 212.122C311.446 210.83 312.332 209.737 313.506 209.044C314.68 208.351 316.064 208.104 317.406 208.347C318.747 208.59 319.957 209.308 320.813 210.37V210.403ZM190.344 136.08C191.964 136.075 193.568 136.4 195.059 137.036C196.549 137.671 197.894 138.604 199.012 139.776C198.408 134.938 191.083 128.05 191.083 128.05C182.515 128.251 184.363 119.784 184.363 119.784C184.75 118.892 185.346 118.106 186.102 117.493C186.857 116.88 187.749 116.459 188.702 116.264C189.655 116.07 190.641 116.108 191.576 116.376C192.511 116.643 193.368 117.132 194.073 117.802C194.073 118.843 195.888 123.614 198.509 123.816C201.129 124.018 200.189 126.773 200.189 126.773C200.189 126.773 202.137 124.253 200.189 122.842C198.24 121.43 198.072 117.768 198.072 117.768C209.092 116.76 216.854 90.2496 216.854 90.2496C219.676 104.933 235.603 105.202 235.603 105.202C235.629 113.916 235.113 122.625 234.057 131.275C233.6 133.895 232.28 136.287 230.308 138.07C228.335 139.854 225.823 140.927 223.171 141.12C223.171 141.12 223.171 149.923 223.641 152.376C219.98 155.535 215.306 157.274 210.47 157.274C205.634 157.274 200.96 155.535 197.299 152.376V149.016C198.858 149.125 200.425 149.057 201.969 148.814C192.561 146.966 190.344 136.08 190.344 136.08ZM195.518 155.736C198.878 161.986 217.929 165.816 225.758 154.459C229.462 154.483 233.158 154.798 236.813 155.4C234.225 182.045 194.812 182.986 185.438 160.171C188.697 158.626 192.091 157.181 195.518 155.736ZM136.517 262.08C118.541 236.006 131.846 200.894 152.846 180.802C162.108 172.327 172.757 165.508 184.329 160.642C188.16 172.838 203.38 178.954 215.376 177.442C221.074 176.906 226.42 174.443 230.531 170.461C234.642 166.478 237.272 161.213 237.989 155.534C247.603 157.213 256.76 160.887 264.869 166.32C273.402 172.079 280.957 179.169 287.246 187.32C295.377 197.635 299.981 210.134 304.819 222.264C296.721 227.875 287.213 233.755 277.469 239.266C275.789 237.989 271.958 234.595 271.185 233.89C271.441 223.936 269.322 214.065 265.003 205.094H264.667C271.589 222.197 269.673 236.51 269.976 243.23C252.235 252.773 235.099 260.4 226.296 262.282C226.296 262.282 226.296 261.778 226.027 261.71C211.948 257.04 169.982 242.088 169.915 242.088C170.784 236.466 171.356 230.802 171.629 225.12C171.629 225.12 171.36 225.12 171.36 225.322C169.915 230.866 169.713 236.88 168.806 242.558C168.789 242.661 168.802 242.767 168.844 242.862C168.886 242.958 168.954 243.039 169.041 243.096C187.32 250.992 206.606 256.536 225.556 262.55C226.002 268.958 225.708 275.395 224.683 281.736C194.88 284.458 156.341 290.808 136.517 262.08ZM276.427 239.87C274.545 240.946 272.63 241.987 270.749 242.995C270.95 240.475 271.085 237.821 271.118 235.099C272.716 236.871 274.495 238.47 276.427 239.87ZM226.665 267.322C227.781 267.795 228.981 268.039 230.193 268.039C231.405 268.039 232.605 267.795 233.721 267.322C236.208 266.011 237.451 263.29 239.702 261.643C239.85 263.48 239.351 265.31 238.291 266.818C238.056 267.12 238.291 267.49 238.761 267.456C241.046 267.792 245.784 266.885 247.43 268.229C249.749 270.077 241.483 270.883 239.366 271.152C239.03 271.152 239.131 271.69 239.366 271.723C241.98 271.708 244.575 271.288 247.061 270.48C249.043 275.52 240.677 274.378 239.097 274.949C239.03 274.971 238.972 275.014 238.93 275.071C238.889 275.128 238.866 275.197 238.866 275.268C238.866 275.339 238.889 275.408 238.93 275.465C238.972 275.522 239.03 275.565 239.097 275.587C241.055 275.721 243.023 275.585 244.944 275.184C246.725 279.384 230.294 282.677 226.161 277.099C226.619 273.861 226.788 270.589 226.665 267.322ZM175.358 329.28C175.358 329.078 175.795 329.28 175.761 329.28C174.921 342.048 166.857 393.994 164.405 407.131C164.405 407.501 163.8 407.333 163.867 407.131C165.614 394.162 172.805 342.182 175.358 329.28ZM148.646 414.389C152.157 416.149 155.77 417.697 159.465 419.026C159.465 420 159.667 421.344 159.768 422.856C151.435 422.05 143.505 423.696 135.206 423.125C135.206 420.134 134.971 414.624 134.971 414.624C137.222 414.557 143.573 414.422 148.646 414.49V414.389ZM151.099 424.066H159.6C159.902 428.131 160.238 433.709 160.574 439.69C157.592 439.27 154.573 439.168 151.569 439.387C151.731 434.311 151.607 429.229 151.2 424.166L151.099 424.066ZM150.259 439.354C149.889 439.354 140.179 439.354 135.777 439.555C135.777 435.523 135.206 425.309 135.206 424.234C140.173 424.567 145.157 424.567 150.125 424.234C149.528 429.293 149.573 434.407 150.259 439.454V439.354ZM19.6221 396.211C49.8621 369.802 79.1613 344.736 110.073 318.931C121.531 329.011 134.165 338.016 146.462 347.189C142.665 364.829 138.499 384.149 136.08 395.27C105.134 395.808 38.5389 396.48 19.6221 396.211ZM25.3341 506.856C25.548 502.157 25.2551 497.448 24.4605 492.811C35.7165 494.155 136.886 493.013 164.64 492.576C164.841 495.936 165.177 500.472 165.513 505.445C134.4 505.445 48.2493 506.251 25.3341 506.856ZM102.211 461.63C108.359 461.149 114.532 461.071 120.691 461.395C120.691 461.395 120.691 486.528 121.229 491.971L102.849 492.274C102.581 481.757 102.849 472.08 102.211 461.63ZM184.665 552.35C165.984 555.542 154.929 553.694 149.049 554.064C148.814 552.552 151.301 549.091 152.409 548.251C153.518 547.411 168 540.49 168 540.49C172.536 548.722 181.91 544.757 184.8 543.312C185.558 546.323 185.558 549.474 184.8 552.485L184.665 552.35ZM196.459 493.315C184.901 498.389 173.443 495.197 164.27 486.965L164.539 491.131L122.472 491.803C122.969 481.312 122.665 470.799 121.565 460.354C121.565 460.354 107.318 458.438 100.968 460.118C100.766 460.118 101.136 481.622 101.405 492.139L37.5645 491.904C37.5645 491.904 36.4221 429.038 34.6413 397.824C48.9549 398.261 106.713 397.152 135.912 396.547L134.131 404.712C137.765 408.092 141.833 410.973 146.227 413.28C142.256 412.862 138.243 413.135 134.366 414.086C134.345 414.163 134.345 414.245 134.366 414.322C133.661 423.05 133.796 431.827 134.769 440.53C134.769 440.53 135.005 440.933 135.173 440.933C139.339 441.202 156.105 440.429 161.011 441.134C161.784 455.011 162.691 470.702 163.564 476.078C163.564 476.078 164.539 486.595 164.707 486.696C169.445 490.056 181.137 499.43 196.291 492.744C196.593 492.509 196.896 493.282 196.459 493.45V493.315ZM199.315 480.278C184.8 483.84 168.672 477.658 164.64 475.843C163.296 466.032 162.489 428.165 160.44 419.429C176.947 424.96 194.272 427.653 211.68 427.392C209.059 435.792 201.163 471.307 199.315 480.48V480.278ZM194.342 366.038C194.366 365.963 194.412 365.898 194.476 365.851C194.539 365.804 194.616 365.779 194.695 365.779C194.774 365.779 194.85 365.804 194.914 365.851C194.977 365.898 195.024 365.963 195.048 366.038C195.048 377.597 195.417 389.189 195.048 400.747C195.048 401.083 194.51 401.083 194.477 400.747C193.973 389.357 194.309 377.765 194.342 366.24V366.038ZM219.979 294.403C212.452 294.806 176.299 296.486 165.917 291.379H165.749C163.104 288.657 161.509 285.086 161.246 281.299C162.657 281.803 164.136 282.24 165.581 282.643C183.691 287.381 202.54 284.592 220.785 282.946C220.27 286.8 220 290.683 219.979 294.571V294.403ZM256.166 484.21C252.806 474.566 242.995 434.885 238.929 425.578C242.289 425.174 249.446 423.931 251.966 423.494C255.326 430.517 259.358 437.304 263.054 444.125C266.75 450.946 270.681 458.27 274.747 465.158C278.107 470.702 281.467 476.146 285.197 481.387C273.94 489.283 260.601 485.856 256.166 484.378V484.21ZM304.92 550.166C294.269 550.402 285.801 551.242 274.68 550.637C273.89 546.959 273.765 543.17 274.31 539.448C284.726 548.083 288.893 536.861 288.893 536.861C291.211 539.011 304.819 545.294 304.92 550.334V550.166ZM438.917 514.886C446.477 517.104 457.128 515.659 464.587 514.114C464.251 516.902 466.435 526.949 454.104 528.36C438.715 530.342 439.589 517.675 438.917 515.054V514.886ZM449.265 545.496C444.998 546.202 428.064 548.856 426.888 541.699C428.163 542.554 429.654 543.031 431.189 543.077C437.035 543.547 465.158 538.44 466.737 536.558C468.518 543.984 453.869 544.925 449.265 545.664V545.496ZM466.737 535.819C464.957 537.466 441.84 541.565 437.069 541.934C432.297 542.304 423.897 543.043 427.425 535.752C428.167 534.287 429.105 532.931 430.214 531.72C431.603 533.095 433.073 534.385 434.616 535.584C435.019 535.853 435.422 535.382 435.22 534.979C434.166 533.282 432.651 531.918 430.853 531.048C431.827 530.04 432.936 529.032 434.044 528.091C434.716 528.629 437.102 531.25 437.841 531.686C437.917 531.731 438.005 531.751 438.092 531.745C438.18 531.739 438.263 531.707 438.332 531.652C438.401 531.598 438.452 531.524 438.479 531.44C438.505 531.356 438.505 531.266 438.48 531.182C437.735 529.551 436.454 528.223 434.851 527.419L437.304 525.437C439.084 526.579 440.664 527.99 442.411 529.2C442.646 529.2 442.949 529.2 442.781 528.864C441.456 527.207 439.781 525.864 437.875 524.933C438.54 524.39 439.236 523.885 439.958 523.421C441.444 525.362 443.362 526.93 445.559 528.003C447.756 529.075 450.172 529.621 452.617 529.598C455.061 529.575 457.467 528.984 459.644 527.871C461.82 526.758 463.708 525.154 465.158 523.186C467.577 525.739 466.737 533.803 466.737 535.987V535.819ZM472.617 400.714C470.064 432.869 432.633 495.264 432.633 495.264V496.07C413.28 524.16 387.576 540.96 377.596 548.99C363.552 544.79 350.918 536.626 338.856 528.494C325.876 520.182 313.674 510.713 302.4 500.203C291.672 489.236 282.472 476.871 275.049 463.445C267.254 450.005 260.669 435.96 252.537 422.822C249.177 415.632 222.734 355.085 221.356 294.504C221.663 290.704 221.72 286.888 221.525 283.08L224.683 282.811C224.892 282.679 225.047 282.476 225.12 282.24C225.498 280.871 225.79 279.479 225.993 278.074C227.786 279.325 229.835 280.161 231.991 280.522C234.147 280.882 236.357 280.757 238.459 280.157C240.912 279.619 246.96 278.477 245.717 274.747C246.098 274.604 246.459 274.412 246.792 274.176C247.142 273.997 247.444 273.735 247.671 273.412C247.897 273.09 248.041 272.717 248.091 272.327C248.141 271.936 248.094 271.539 247.956 271.17C247.817 270.802 247.59 270.472 247.296 270.211C248.505 269.606 249.043 268.766 248.102 267.59C247.598 267.171 247.012 266.862 246.381 266.683C245.75 266.503 245.089 266.458 244.44 266.549C242.642 266.526 240.845 266.638 239.064 266.885C240.273 265.205 240.912 259.426 239.265 260.434C237.758 261.599 236.443 262.994 235.368 264.566C232.848 267.456 229.925 267.154 226.497 266.616C226.497 265.44 226.497 264.264 226.195 263.256C232.959 262.399 239.521 260.363 245.582 257.242C253.445 253.882 291.581 236.309 311.472 218.971C311.992 220.146 312.751 221.201 313.699 222.068C314.648 222.936 315.765 223.597 316.982 224.011C319.2 224.515 319.603 223.238 319.267 221.626C319.506 221.799 319.784 221.912 320.076 221.956C320.369 222 320.667 221.973 320.947 221.878C321.227 221.782 321.48 221.621 321.684 221.408C321.889 221.194 322.039 220.935 322.123 220.651C322.374 219.956 322.374 219.196 322.123 218.501C323.333 219.139 324.206 219.24 324.576 217.795C324.699 216.624 324.584 215.439 324.237 214.313C323.891 213.187 323.32 212.143 322.56 211.243C324.945 209.362 327.163 207.312 329.515 205.397C334.32 201.566 340.2 206.035 345.005 208.085C352.329 211.243 367.315 217.661 367.416 217.526C367.202 218.423 367.045 219.332 366.945 220.248C366.945 221.491 366.24 223.877 367.853 224.515C368.894 224.918 369.667 224.314 370.204 223.306C370.302 223.64 370.476 223.948 370.712 224.204C370.948 224.46 371.241 224.657 371.566 224.781C371.892 224.905 372.242 224.951 372.589 224.917C372.936 224.882 373.27 224.768 373.565 224.582C373.819 224.417 374.046 224.213 374.237 223.978C375.144 225.456 376.824 226.262 378.201 224.918C379.293 223.87 380.082 222.547 380.486 221.088C397.569 227.059 415.065 231.775 432.835 235.2C441.269 236.779 449.87 237.082 458.304 238.56C469.66 240.475 472.113 250.723 471.744 260.736C470.925 260.692 470.113 260.557 469.324 260.333C467.586 259.794 465.881 259.155 464.217 258.418C464.217 258.418 464.016 258.418 464.016 258.619C463.677 259.949 463.783 261.354 464.318 262.618C464.622 263.603 465.28 264.441 466.166 264.97C464.176 266.007 462.407 267.422 460.958 269.136C459.984 270.144 457.262 272.496 457.598 274.176C457.934 275.856 459.681 275.386 460.958 275.016C460.822 275.316 460.764 275.646 460.789 275.974C460.815 276.303 460.923 276.619 461.104 276.895C461.286 277.17 461.534 277.395 461.826 277.548C462.117 277.701 462.443 277.778 462.772 277.771H463.814C465.897 280.123 468.921 278.174 471.038 276.797L473.827 275.016C473.827 283.046 475.07 291.11 475.809 299.107C476.347 305.256 476.616 311.506 477.422 317.654C479.035 363.821 475.137 368.794 472.617 400.882V400.714ZM478.564 317.419C478.128 310.699 477.187 303.979 476.616 297.259C475.944 289.632 475.675 281.837 474.465 274.277C477.061 272.616 479.442 270.641 481.555 268.397C483.269 271.118 485.083 273.773 486.696 276.36C487.15 276.639 487.651 276.833 488.174 276.931C487.569 283.651 490.829 309.49 492.038 318.696C485.52 318.494 480.681 317.89 478.564 317.587V317.419ZM492.677 318.763C491.971 309.422 490.157 283.651 489.317 276.931C513.038 276.562 538.238 270.01 555.341 253.042C555.71 263.525 558.969 294.907 559.137 300.082C559.379 301.684 559.213 303.321 558.655 304.842C558.098 306.362 557.166 307.718 555.945 308.784C534.777 319.2 508.838 319.838 492.677 318.931V318.763ZM539.716 541.397C534.307 543.85 523.421 548.621 519.792 541.8C521.69 541.965 523.603 541.783 525.437 541.262C535.487 539.324 544.986 535.194 553.257 529.166C556.92 533.165 541.833 540.523 539.549 541.565L539.716 541.397ZM552.921 528.326C545.142 534.131 536.146 538.095 526.612 539.918C523.622 540.523 518.817 541.699 518.212 537.701C518.31 536.222 518.849 534.806 519.758 533.635C520.128 532.963 520.564 532.325 521.001 531.686C522.214 532.333 523.27 533.239 524.092 534.341C524.462 534.61 524.798 534.106 524.664 533.77C523.917 532.545 522.799 531.591 521.472 531.048C522.11 530.174 522.782 529.334 523.454 528.494C525.84 529.469 526.478 531.35 527.184 531.854C527.889 532.358 527.789 531.854 527.688 531.485C526.841 529.937 525.555 528.674 523.992 527.856L525.705 525.773C528.259 527.352 529.065 529.402 529.805 530.107C530.107 530.342 530.712 530.107 530.544 529.67C529.648 527.737 528.213 526.103 526.411 524.966L528.192 522.749C532.156 529.469 547.411 526.109 547.982 518.381C549.898 521.589 551.496 524.976 552.753 528.494L552.921 528.326ZM545.529 509.645C546.201 512.131 551.073 522.715 538.07 525.067C529.032 526.714 525.571 515.928 525.369 515.491C532.411 515.349 539.296 513.393 545.361 509.813L545.529 509.645ZM631.68 458.237C630.101 457.531 630.101 456.187 629.529 454.877C628.773 452.698 627.77 450.612 626.539 448.661C620.995 441.269 609.739 443.285 602.582 447.317C600.801 448.385 599.292 449.85 598.173 451.599C597.053 453.348 596.354 455.333 596.131 457.397C596.091 458.297 596.002 459.195 595.862 460.085C595.224 462.336 594.72 462.269 592.3 462.571C589.176 462.974 560.885 464.923 544.891 465.394C542.371 450.677 539.885 436.094 538.809 430.147C537.213 423.454 536.95 416.513 538.036 409.718C542.113 403.619 545.208 396.919 547.209 389.861C557.659 389.155 580.809 387.139 586.723 388.685C594.081 390.701 598.012 396.95 600.734 403.603C603.456 410.256 605.539 417.648 607.891 424.267C607.891 424.536 608.596 424.67 608.697 424.67C614.544 424.67 620.524 423.83 626.371 423.562C632.217 423.293 640.08 421.075 645.052 424.771C648.693 428.17 650.963 432.783 651.437 437.741C652.6 444.227 653.162 450.807 653.117 457.397C647.203 457.195 632.62 458.674 631.68 458.237Z" fill="#2C2768"/>
<path d="M622.17 475.441C623.308 474.534 624.249 473.406 624.937 472.124C625.624 470.842 626.044 469.434 626.169 467.985C626.295 466.535 626.124 465.076 625.668 463.695C625.212 462.314 624.479 461.04 623.514 459.951C621.443 457.36 618.559 455.543 615.328 454.793C612.097 454.043 608.707 454.405 605.706 455.818C598.785 459.917 600.868 468.553 604.026 472.921C607.655 477.893 617.198 478.801 622.17 475.441ZM606.244 456.961C608.266 455.977 610.52 455.566 612.759 455.773C614.998 455.981 617.138 456.798 618.945 458.137C623.649 461.194 626.606 468.452 622.305 473.089C618.945 476.684 610.814 476.449 607.084 473.593C599.894 468.183 602.514 458.775 606.244 456.961Z" fill="#2C2768"/>
<path d="M614.88 467.04C615.496 466.412 615.84 465.568 615.84 464.688C615.84 463.809 615.496 462.964 614.88 462.336C614.257 461.75 613.434 461.424 612.578 461.424C611.723 461.424 610.9 461.75 610.277 462.336C609.962 462.6 609.705 462.925 609.521 463.292C609.338 463.659 609.231 464.059 609.209 464.469C609.187 464.879 609.25 465.289 609.393 465.673C609.536 466.058 609.757 466.409 610.041 466.704C610.332 467.052 610.689 467.338 611.093 467.544C611.496 467.75 611.937 467.873 612.389 467.904C612.841 467.935 613.295 467.875 613.723 467.727C614.151 467.578 614.544 467.345 614.88 467.04ZM613.502 463.042C613.755 463.14 613.982 463.296 614.163 463.498C614.343 463.701 614.474 463.943 614.543 464.205C614.611 464.468 614.617 464.743 614.559 465.008C614.501 465.273 614.38 465.52 614.208 465.73C610.814 469.325 608.832 461.496 613.435 462.975L613.502 463.042ZM583.934 400.243C577.214 395.069 564.514 398.631 557.357 400.781C557.282 400.789 557.214 400.825 557.164 400.881C557.115 400.936 557.087 401.009 557.088 401.083C557.693 408.979 559.541 417.379 560.784 425.208C560.784 425.208 581.851 422.554 592.301 422.587C592.569 422.587 593.073 422.587 593.04 422.218C592.065 414.691 590.352 405.216 583.934 400.243ZM561.725 423.763C560.616 416.506 560.145 409.013 558.701 401.789C565.79 400.445 577.55 396.648 583.632 402.125C588.941 406.863 590.15 414.523 591.158 421.21C586.253 421.21 566.63 423.024 561.725 423.831V423.763ZM618.038 488.746C608.294 482.866 594.787 484.848 584.438 488.746C578.997 490.732 573.888 493.53 569.285 497.045C565.689 499.834 562.329 503.093 563.069 507.965C563.069 508.704 568.613 526.344 568.713 526.378C577.685 532.123 590.99 531.754 600.936 529.368C606.464 528.062 611.757 525.909 616.627 522.984C620.979 520.277 624.547 516.477 626.976 511.963C626.976 511.963 626.102 500.775 626.069 500.506C625.782 498.042 624.902 495.685 623.503 493.636C622.104 491.588 620.229 489.91 618.038 488.746ZM566.798 501.144C570.992 496.74 576.094 493.3 581.75 491.064C592.569 486.259 608.026 484.647 616.997 489.922C622.81 493.282 626.707 500.371 622.44 506.722C618.859 510.986 614.226 514.241 609 516.163C598.416 520.901 583.733 524.698 573.014 518.415C567.269 515.055 561.725 507.36 566.798 501.144ZM614.409 522.48C610.08 524.86 605.445 526.635 600.633 527.755C590.582 530.402 579.933 529.598 570.393 525.471C570.393 525.471 567.873 517.944 566.63 514.248C568.948 517.02 571.862 519.23 575.156 520.714C578.45 522.198 582.037 522.917 585.648 522.816C597.447 522.515 608.893 518.727 618.542 511.93C621.154 510.263 623.221 507.868 624.489 505.042C624.792 507.192 625.061 511.594 625.061 511.762C622.549 516.235 618.867 519.941 614.409 522.48Z" fill="#2C2768"/>
<path d="M588.638 514.887L587.63 516.668C587.26 517.34 588.302 517.944 588.672 517.272L589.814 515.29C590.946 515.631 592.142 515.706 593.308 515.507C594.474 515.309 595.578 514.844 596.534 514.148C597.105 513.711 596.534 512.837 595.795 513.173C594.191 514.069 592.322 514.366 590.52 514.013C592.469 510.653 594.552 507.596 596.669 504.504C597.441 504.504 598.214 504.504 599.021 504.706C600.533 504.945 602.083 504.708 603.456 504.028C604.828 503.347 605.955 502.258 606.681 500.909C607.142 499.694 607.208 498.365 606.87 497.111C606.532 495.856 605.808 494.74 604.8 493.92L604.296 493.584L605.438 491.837C605.458 491.813 605.473 491.785 605.482 491.755C605.491 491.725 605.494 491.693 605.491 491.662C605.488 491.631 605.479 491.601 605.464 491.573C605.449 491.546 605.429 491.521 605.405 491.501C605.38 491.481 605.352 491.467 605.322 491.457C605.292 491.448 605.261 491.445 605.23 491.448C605.198 491.452 605.168 491.461 605.14 491.476C605.113 491.49 605.088 491.511 605.069 491.535C604.531 492.072 603.993 492.61 603.489 493.181C601.698 492.671 599.816 492.565 597.98 492.873C596.143 493.182 594.398 493.895 592.872 494.962C592.569 495.164 592.872 495.701 593.141 495.567C594.85 494.793 596.66 494.261 598.517 493.988C599.856 493.828 601.214 493.93 602.515 494.29C600.083 497.132 597.838 500.128 595.795 503.261C592.267 502.892 588.201 502.623 585.715 505.882C585.156 506.624 584.784 507.49 584.63 508.406C584.477 509.322 584.546 510.262 584.833 511.145C585.12 512.029 585.615 512.83 586.278 513.482C586.94 514.133 587.75 514.615 588.638 514.887ZM603.59 494.492C604.441 494.777 605.156 495.368 605.596 496.15C606.037 496.932 606.172 497.849 605.976 498.725C605.102 503.228 601.205 503.597 597.576 503.295C599.592 500.372 601.608 497.448 603.59 494.492ZM591.36 504.168C592.476 504.044 593.603 504.044 594.72 504.168C592.737 507.226 590.889 510.384 589.109 513.476C582.993 510.72 586.555 504.74 591.36 504.168ZM218.635 579.97C217.489 576.93 215.626 574.213 213.204 572.048C210.782 569.884 207.873 568.336 204.725 567.538C195.365 565.147 185.5 565.65 176.433 568.983C168.571 571.469 156.273 578.424 158.76 588.572C159.062 590.722 163.195 606.178 163.43 606.178C171.427 614.376 185.001 614.141 195.451 612.898C204.724 611.655 217.896 608.261 221.525 598.316C220.918 592.243 219.976 586.208 218.702 580.239C218.72 580.218 218.733 580.194 218.739 580.167C218.746 580.141 218.746 580.113 218.739 580.087C218.733 580.06 218.72 580.036 218.702 580.015C218.683 579.995 218.66 579.98 218.635 579.97ZM160.877 581.28C164.18 575.989 169.347 572.129 175.358 570.461C184.661 566.923 194.819 566.291 204.489 568.647C211.008 570.159 219.273 576.576 217.929 584.17C216.787 591.192 211.209 594.25 205.195 596.568C194.236 601.373 181.891 601.972 170.52 598.248C163.464 595.493 156.509 589.311 160.877 581.28ZM193.805 611.756C188.563 612.446 183.254 612.446 178.013 611.756C172.97 610.823 168.183 608.83 163.968 605.909C163.968 605.909 162.153 597.375 161.112 593.309C166.286 599.727 177.475 601.44 184.8 601.44C190.959 601.432 197.072 600.376 202.877 598.316C207.833 597.02 212.385 594.502 216.115 590.991C217.213 589.743 218.057 588.294 218.601 586.724C219.072 590.52 220.516 598.013 220.516 598.013C214.2 607.152 204.456 610.344 193.805 611.52V611.756Z" fill="#2C2768"/>
<path d="M182.582 594.384L181.81 595.594C181.574 595.964 182.146 596.434 182.414 596.064L183.389 594.754C184.754 595.34 186.235 595.608 187.719 595.538C189.203 595.469 190.652 595.062 191.957 594.351C192.461 594.048 192.158 593.175 191.554 593.376C189.171 594.303 186.55 594.421 184.094 593.712C186.077 590.722 190.478 582.826 190.982 582.087C194.006 582.423 197.232 582.524 199.114 579.701C199.571 579.216 199.902 578.625 200.075 577.98C200.247 577.336 200.258 576.659 200.105 576.009C199.951 575.36 199.64 574.759 199.197 574.26C198.754 573.76 198.194 573.379 197.568 573.149L198.206 572.242C198.442 571.94 197.971 571.637 197.702 571.872L196.728 572.813C195.337 572.277 193.839 572.077 192.356 572.229C190.873 572.381 189.447 572.88 188.194 573.687C187.925 573.922 188.194 574.258 188.563 574.124C190.259 573.403 192.101 573.092 193.939 573.216C194.629 573.264 195.308 573.411 195.955 573.653C193.874 575.901 192.027 578.355 190.445 580.978C188.892 580.628 187.297 580.492 185.707 580.575C184.19 580.738 182.747 581.312 181.533 582.236C180.319 583.16 179.38 584.398 178.819 585.816C178.21 587.454 178.262 589.264 178.964 590.863C179.667 592.463 180.965 593.726 182.582 594.384ZM196.862 574.224C199.786 576.072 198.946 580.272 194.141 581.18C193.316 581.297 192.479 581.297 191.654 581.18C193.301 578.727 195.082 576.442 196.862 574.124V574.224ZM189.84 582.087C187.555 585.816 185.539 589.714 183.12 593.41C182.368 593.013 181.709 592.46 181.187 591.788C180.666 591.115 180.294 590.34 180.096 589.512C178.517 582.994 184.8 581.482 189.84 581.986V582.087ZM122.842 522.884C114.119 518.295 104.101 516.791 94.4161 518.617C86.3185 519.524 72.912 524.026 73.5168 534.341C73.5168 536.424 74.3233 552.284 74.5249 552.351C80.6065 561.759 93.4416 564.38 103.79 565.22C113.266 565.992 127.31 565.556 133.022 556.316L133.93 537.937C133.402 534.73 132.123 531.694 130.195 529.077C128.268 526.461 125.748 524.338 122.842 522.884ZM132.115 556.047C124.219 563.439 114.307 564.716 103.79 563.876C98.4896 563.576 93.2495 562.593 88.2001 560.952C83.2612 559.007 78.8022 556.016 75.1297 552.183C75.1297 552.183 75.1297 543.48 74.8945 539.314C78.7585 546.874 89.8129 550.872 97.2721 552.317C103.122 553.436 109.115 553.584 115.013 552.754C120.041 552.453 124.919 550.931 129.226 548.319C130.577 547.305 131.718 546.038 132.586 544.589C132.216 548.386 132.115 556.047 132.115 556.047ZM132.854 540.658C130.872 547.714 124.723 549.864 118.238 551.141C106.548 553.759 94.304 552.027 83.7985 546.269C77.5489 542.573 71.3329 535.618 76.4065 528.293C78.3415 525.901 80.7353 523.919 83.4473 522.465C86.1593 521.011 89.1347 520.114 92.1985 519.826C102.435 517.721 113.081 519.105 122.438 523.757C127.915 526.512 134.803 533.837 132.854 540.658Z" fill="#2C2768"/>
<path d="M114.911 526.68L115.482 526.176C115.751 525.941 115.482 525.504 115.079 525.672L114.273 526.21C112.93 525.501 111.457 525.073 109.944 524.952C108.43 524.83 106.908 525.018 105.469 525.504C105.406 525.536 105.356 525.589 105.327 525.654C105.299 525.719 105.294 525.792 105.314 525.86C105.334 525.928 105.378 525.987 105.437 526.027C105.496 526.066 105.567 526.083 105.638 526.076C108.195 525.657 110.818 525.935 113.231 526.882C110.907 528.53 108.747 530.398 106.78 532.459L104.865 532.191C103.276 531.705 101.598 531.586 99.9573 531.842C98.3161 532.098 96.7544 532.722 95.3895 533.669C94.5256 534.313 93.8293 535.156 93.3593 536.126C92.8893 537.095 92.6594 538.164 92.6891 539.241C92.7187 540.318 93.007 541.373 93.5296 542.315C94.0522 543.258 94.7939 544.061 95.6919 544.656L94.6839 545.698C94.3143 546.034 94.8519 546.538 95.2551 546.236L96.3975 545.194C97.5859 546.104 98.9825 546.704 100.461 546.938C101.939 547.173 103.453 547.035 104.865 546.538C104.973 546.479 105.058 546.384 105.105 546.27C105.152 546.156 105.158 546.029 105.123 545.911C105.087 545.793 105.012 545.69 104.91 545.621C104.808 545.552 104.685 545.519 104.562 545.53C102.121 545.821 99.6475 545.401 97.4391 544.32C100.161 541.666 106.41 534.442 107.116 533.77C109.256 534.206 111.47 534.114 113.567 533.501C114.532 533.247 115.361 532.629 115.881 531.778C116.401 530.926 116.571 529.906 116.356 528.931C116.142 528.04 115.633 527.246 114.911 526.68ZM96.5319 543.783C95.9292 543.445 95.4007 542.99 94.9778 542.444C94.555 541.898 94.2466 541.272 94.071 540.604C93.8953 539.936 93.8561 539.239 93.9557 538.556C94.0552 537.872 94.2914 537.216 94.6503 536.626C96.4983 532.896 100.194 532.728 103.789 533.266L105.738 533.568C102.58 536.861 99.6903 540.456 96.5319 543.783ZM111.249 532.661C110.232 532.762 109.208 532.762 108.191 532.661C110.106 530.88 112.122 529.301 114.105 527.453C114.465 527.732 114.752 528.096 114.939 528.512C115.127 528.928 115.209 529.383 115.18 529.839C115.146 532.123 112.996 532.527 111.249 532.661Z" fill="#2C2768"/>
</svg>
