<svg width="129" height="129" viewBox="0 0 129 129" fill="none" xmlns="http://www.w3.org/2000/svg">
<mask id="mask0_450_1645" style="mask-type:alpha" maskUnits="userSpaceOnUse" x="0" y="0" width="129" height="129">
<circle cx="64.2885" cy="64.2885" r="64.2885" fill="#D9D9D9"/>
</mask>
<g mask="url(#mask0_450_1645)">
<path d="M99.5326 117.365C99.2375 117.576 98.9003 117.786 98.6052 117.997C98.2679 118.208 97.9728 118.419 97.6356 118.587C97.3405 118.756 97.0875 118.925 96.7924 119.093C96.7503 119.135 96.7081 119.135 96.666 119.178C95.6964 119.768 94.6846 120.316 93.6728 120.822C93.3777 120.99 93.0405 121.159 92.7454 121.285C92.7454 121.285 92.7032 121.327 92.6611 121.327C92.3238 121.496 91.9865 121.665 91.6493 121.833C90.9748 122.171 90.2581 122.466 89.5836 122.761C89.2464 122.929 88.8669 123.056 88.5297 123.182C88.1924 123.309 87.813 123.478 87.4758 123.604C87.1385 123.73 86.7591 123.899 86.4218 124.026C86.4218 124.026 86.4218 124.026 86.3797 124.026C86.0424 124.152 85.663 124.278 85.3258 124.405C84.5669 124.658 83.766 124.911 83.0071 125.164C82.7542 125.248 82.4591 125.332 82.2062 125.417C81.4052 125.67 80.6042 125.88 79.8032 126.049C79.5081 126.133 79.213 126.176 78.8758 126.26C78.1169 126.428 77.316 126.597 76.5571 126.766C76.3885 126.808 76.262 126.808 76.0934 126.85C75.8405 126.892 75.5454 126.934 75.2924 126.977C74.913 127.019 74.5758 127.103 74.1964 127.145C74.0277 127.187 73.8591 127.187 73.6905 127.229C73.4797 127.272 73.2268 127.314 72.9738 127.314C72.2993 127.398 71.5826 127.482 70.9081 127.567C70.6973 127.609 70.4444 127.609 70.2336 127.651H70.1915C69.8964 127.693 69.6013 127.693 69.3062 127.735C69.0111 127.778 68.716 127.778 68.4209 127.778C68.2522 127.778 68.0415 127.82 67.8728 127.82C67.5356 127.82 67.2405 127.862 66.9454 127.862C66.5238 127.862 66.1444 127.904 65.7228 127.904C65.3013 127.904 64.9219 127.904 64.5003 127.904C64.2052 127.904 63.9101 127.904 63.615 127.904C45.8248 127.651 29.8473 120.105 18.4228 108.132C18.4228 108.132 18.4228 108.09 18.3807 108.09C17.116 106.952 18.212 100.881 23.313 97.0451C29.7209 92.1971 45.066 89.1618 45.066 89.1618C45.066 89.1618 51.0101 88.1922 73.0581 92.7873C85.9581 95.4853 95.7807 99.4059 101.261 110.029C102.399 112.222 103.538 115.594 99.5326 117.365Z" fill="white"/>
<path d="M73.1847 92.3236C81.2788 93.9677 89.921 95.7383 96.5817 101.092C98.816 102.905 100.292 105.561 101.514 108.132C102.104 109.397 102.694 110.704 103.158 112.095C103.411 113.023 103.791 114.077 103.58 115.173C103.538 115.468 103.285 115.847 103.074 116.058C102.104 117.027 101.05 117.618 99.9964 118.376C93.7994 122.676 86.6749 125.712 79.2974 127.314C62.8562 130.897 45.066 128.115 30.6062 119.473C25.8004 116.564 21.3739 113.023 17.5798 108.849C17.1582 108.343 17.1582 107.5 17.1582 106.952C17.2004 105.687 17.5376 104.465 17.9592 103.327C18.9709 100.713 20.2778 98.099 22.5121 96.2863C24.1141 95.1902 25.8425 94.2628 27.6131 93.504C33.1778 91.1432 39.0376 89.4991 45.066 88.8245C45.5719 88.7824 45.6562 89.4991 45.1504 89.5834C39.3749 90.7638 33.6415 92.5343 28.2876 94.9373C26.3484 95.9069 24.2827 96.75 22.7229 98.2677C21.2474 99.8696 20.1935 101.851 19.3504 103.875C18.8023 105.097 18.4229 107.036 18.5915 108.006C21.2474 111.168 24.367 113.95 27.7396 116.353C46.2043 129.253 74.2386 130.096 93.8837 119.346C95.6543 118.377 97.3827 117.28 99.0268 116.142C99.8278 115.594 100.671 115.13 101.303 114.498C101.345 114.456 101.303 114.498 101.303 114.54C101.303 114.582 101.261 114.625 101.261 114.625C101.303 114.119 101.135 113.444 100.924 112.77C100.165 110.325 98.9425 107.753 97.6357 105.519C95.57 102.188 92.071 100.08 88.5298 98.3941C86.0847 97.2559 83.5131 96.3706 80.8994 95.5275C78.2857 94.6843 75.6298 93.9677 72.9739 93.3353C72.2994 93.1667 72.5102 92.1971 73.1847 92.3236Z" fill="black"/>
<path d="M99.5323 117.365C99.2372 117.576 98.9 117.787 98.6049 117.997C98.2676 118.208 97.9725 118.419 97.6353 118.588C97.3402 118.756 97.0872 118.925 96.7921 119.093C96.75 119.136 96.7078 119.136 96.6657 119.178C95.6961 119.768 94.6843 120.316 93.6725 120.822C93.3774 120.99 93.0402 121.159 92.7451 121.286C92.7451 121.286 92.7029 121.328 92.6608 121.328C92.3235 121.496 91.9862 121.665 91.649 121.834C90.9745 122.171 90.2578 122.466 89.5833 122.761C89.246 122.93 88.8666 123.056 88.5294 123.183C88.1921 123.309 87.8127 123.478 87.4755 123.604C87.1382 123.731 86.7588 123.899 86.4215 124.026C86.4215 124.026 86.4215 124.026 86.3794 124.026C86.0421 124.152 85.6627 124.279 85.3255 124.405C84.5666 124.658 83.7657 124.911 83.0068 125.164C82.7539 125.248 82.4588 125.333 82.2059 125.417C81.4049 125.67 80.6039 125.881 79.8029 126.049C79.5078 126.134 79.2127 126.176 78.8755 126.26C78.1166 126.429 77.3157 126.597 76.5568 126.766C76.3882 126.808 76.2617 126.808 76.0931 126.85C75.8402 126.892 75.5451 126.935 75.2921 126.977C74.9127 127.019 74.5755 127.103 74.1961 127.145C74.0274 127.188 73.8588 127.188 73.6902 127.23C73.4794 127.272 73.2264 127.314 72.9735 127.314C72.299 127.398 71.5823 127.483 70.9078 127.567C70.697 127.609 70.4441 127.609 70.2333 127.651H70.1912C69.896 127.693 69.601 127.693 69.3059 127.736C69.0108 127.778 68.7157 127.778 68.4206 127.778C68.2519 127.778 68.0411 127.82 67.8725 127.82C67.5353 127.82 67.2402 127.862 66.9451 127.862C66.5235 127.862 66.1441 127.904 65.7225 127.904C65.301 127.904 64.9215 127.904 64.5 127.904C64.2049 127.904 63.9098 127.904 63.6147 127.904C45.8245 127.651 29.847 120.105 18.4225 108.133C18.4225 108.133 18.4225 108.09 18.3804 108.09C17.1157 107.458 18.001 100.249 23.1019 96.413C29.5098 91.565 45.0657 89.1621 45.0657 89.1621C45.0657 89.1621 51.0098 88.1925 73.0578 92.7876C84.8617 95.2326 95.8225 99.1111 99.8274 105.856C100.924 107.711 103.579 111.337 103.116 114.077C102.863 115.552 100.797 116.227 99.5323 117.365Z" fill="white"/>
<path d="M73.1847 92.3238C81.0259 94.01 90.2161 95.4855 96.6661 100.587C100.797 103.875 102.146 109.102 104.128 113.824C104.296 114.119 104.128 114.414 104.001 114.667C102.863 116.437 101.008 117.618 99.3219 118.798C94.3896 122.129 88.867 124.658 83.1759 126.302C64.121 131.825 42.5788 128.368 26.4327 116.775C23.1866 114.456 20.1935 111.8 17.5376 108.849L17.7484 109.018C17.0739 108.554 16.9053 107.711 16.9053 106.994C17.1161 104.043 18.4229 101.345 19.7298 98.7316C20.1514 97.9728 20.6151 97.1296 21.2896 96.5395C27.4866 90.8483 37.6886 88.6561 45.8249 87.8973C46.3308 87.8551 46.3729 88.5718 45.9092 88.6561C38.3631 90.0473 30.5219 91.8179 24.1141 96.2022C23.271 96.8767 22.2592 97.5512 21.669 98.4787C20.6994 99.9963 17.2847 106.573 18.5494 107.922C27.3602 118.419 40.5974 124.447 54.0455 126.049C67.2827 127.82 81.2366 126.007 93.0827 119.726C94.769 118.84 96.4131 117.871 97.9729 116.775C99.4062 115.805 100.84 114.878 101.936 113.571L101.894 113.655L101.851 114.414C101.725 112.854 100.924 111.337 100.418 109.861C99.8278 108.386 99.1955 106.826 98.4366 105.477C96.919 102.737 94.3053 100.797 91.5651 99.3218C88.7406 97.8042 85.6631 96.7081 82.5014 95.7806C79.3396 94.8532 76.1778 94.0522 72.9317 93.3355C72.2994 93.1669 72.5102 92.1973 73.1847 92.3238Z" fill="black"/>
<path d="M23.9873 95.4854C23.9873 95.4854 26.0951 95.7384 29.004 97.509C34.4422 100.839 42.9579 121.538 28.1187 133.932C28.1187 133.932 25.4628 149.446 28.1187 152.397C28.1187 152.397 76.6834 154.842 97.6354 152.397C97.6354 152.397 100.418 143.291 99.0687 133.553C97.3824 121.201 97.8883 108.217 89.752 97.1295C86.0422 92.0707 67.451 87.6864 56.701 87.7707C45.8246 87.8972 41.3138 89.0354 38.4471 89.7521C35.5383 90.5109 24.1981 93.2511 23.9873 95.4854Z" fill="black" stroke="black" stroke-width="5.1257" stroke-miterlimit="10" stroke-linecap="round" stroke-linejoin="round"/>
<path d="M25.252 97.1717C30.3529 92.4923 29.7627 96.455 39.3323 94.8952C43 94.305 47.3421 91.2697 52.949 91.3962C56.9961 91.4805 61.3804 94.5158 66.5657 95.1903C70.7392 95.7383 75.7137 93.8413 80.6882 94.853C84.8618 95.7383 88.7402 99.406 93.5461 100.713" stroke="white" stroke-width="4" stroke-miterlimit="10" stroke-linecap="round" stroke-linejoin="round"/>
<path d="M25.6318 102.779C31.6181 99.1953 30.4799 102.947 39.9652 101.64C43.7171 101.135 48.1858 98.0149 53.7505 98.0571C57.8818 98.0992 62.3505 101.092 67.5779 101.598C71.8358 102.02 76.8103 99.9541 81.8269 100.797C86.1269 101.556 90.1318 105.182 94.9799 106.32" stroke="white" stroke-width="4" stroke-miterlimit="10" stroke-linecap="round" stroke-linejoin="round"/>
<path d="M26.0107 108.427C32.5872 105.814 31.1539 109.355 40.5549 108.343C44.4333 107.922 48.9862 104.802 54.5509 104.802C58.7666 104.802 63.3617 107.753 68.5892 108.175C72.9313 108.512 77.948 106.235 82.9647 106.952C87.349 107.584 91.5225 111.126 96.4549 112.095" stroke="white" stroke-width="4" stroke-miterlimit="10" stroke-linecap="round" stroke-linejoin="round"/>
<path d="M26.3906 114.161C33.3465 112.432 31.7445 115.763 41.0612 115.004C45.024 114.667 49.7034 111.589 55.2681 111.547C59.6102 111.505 64.3318 114.456 69.5593 114.751C74.0279 115.004 79.0024 112.517 84.1034 113.065C88.6142 113.528 92.9985 116.985 97.973 117.786" stroke="white" stroke-width="4" stroke-miterlimit="10" stroke-linecap="round" stroke-linejoin="round"/>
<path d="M26.6855 119.894C33.8944 118.882 32.1659 122.044 41.4826 121.58C45.5718 121.37 50.3777 118.292 55.9846 118.25C60.411 118.208 65.2591 121.201 70.5287 121.37C75.0816 121.538 80.0983 118.882 85.2414 119.22C89.8787 119.557 94.4738 122.887 99.4904 123.435" stroke="white" stroke-width="4" stroke-miterlimit="10" stroke-linecap="round" stroke-linejoin="round"/>
<path d="M26.9805 125.628C34.3579 125.206 32.5873 128.284 41.904 128.073C46.1197 127.988 51.052 124.953 56.6589 124.953C61.2118 124.953 66.1442 127.946 71.456 128.031C76.1354 128.115 81.1942 125.29 86.3373 125.459C91.1011 125.628 95.9069 128.832 101.008 129.127" stroke="white" stroke-width="4" stroke-miterlimit="10" stroke-linecap="round" stroke-linejoin="round"/>
<path d="M77.1465 103.537C76.2612 107.879 70.5278 110.493 60.8739 106.573C50.8406 102.526 46.4984 92.8716 45.4023 90.0049C51.3465 78.8755 47.2151 71.1608 47.2151 71.1608C60.9161 69.9804 72.8886 86 72.8886 86L74.7435 93.9255C74.9122 94.6 75.2494 95.1902 75.7553 95.6118C76.6406 97.1716 77.6945 100.755 77.1465 103.537Z" fill="white"/>
<path d="M45.192 90.1313C45.993 88.9087 46.4988 87.4754 46.8361 86.0842C47.4685 83.1754 47.6792 80.2244 47.7214 77.2734V76.1774C47.5949 75.0813 47.2155 73.943 46.7939 72.9313C46.2459 71.5823 48.2273 70.7391 48.8596 72.0881C48.9439 72.2568 48.9439 72.5519 48.9439 72.7205C49.0704 78.4538 49.3234 85.8313 45.6979 90.595C45.4449 90.8479 44.939 90.4685 45.192 90.1313Z" fill="black"/>
<path d="M73.3522 85.9159C73.9846 86.2953 74.1954 86.8012 74.2797 87.307C74.5326 88.3188 74.4483 89.4149 74.7012 90.4688C74.912 91.4806 75.5444 92.4502 75.713 93.5041C75.9238 94.6002 76.5561 96.9188 76.8091 98.057C76.8934 98.31 76.7248 98.6051 76.4297 98.6472C76.261 98.6894 76.1346 98.6472 76.0081 98.5629C75.4601 98.0992 75.2071 97.6355 74.8699 97.0453C74.3218 96.0335 73.9424 95.106 73.6052 93.9678C73.3101 92.956 73.4365 91.86 73.1836 90.806C72.9728 89.7943 72.3826 88.8247 72.1718 87.7708C72.0454 87.2649 72.0032 86.7168 72.3826 86.0845C72.6356 85.8315 73.0571 85.7472 73.3522 85.9159Z" fill="black"/>
<path d="M76.3878 97.0452C68.3359 96.6236 61.7594 94.0942 55.3516 82.6697C60.7476 87.4334 67.1133 89.2461 73.8163 90.0893L74.7016 93.9677C74.8702 94.6422 75.882 96.6236 76.3878 97.0452Z" fill="black"/>
<path d="M76.0506 95.4853C77.4839 98.1834 78.327 101.556 77.4417 104.549C76.7672 106.657 74.828 108.217 72.7202 108.807C67.83 110.114 62.181 108.048 57.8388 105.729C52.4849 102.736 48.5221 97.7196 45.9927 92.2392C45.8241 91.8177 46.4143 91.4804 46.6672 91.902C47.5525 93.6726 48.5643 95.401 49.7025 96.9608C50.8408 98.5628 52.1476 100.038 53.6231 101.345C57.9231 105.224 63.7408 107.626 69.5584 107.626C75.5447 107.458 77.8212 104.296 76.43 98.4785C76.2192 97.551 75.8819 96.5814 75.4182 95.7804C75.1653 95.4432 75.7976 95.0637 76.0506 95.4853Z" fill="black"/>
<path d="M92.366 44.8548C93.1248 48.396 93.5043 51.2626 91.4386 60.7058C89.415 70.1067 94.3474 72.046 82.6699 87.096C77.9062 93.2509 66.3552 91.5224 56.9964 85.1567C53.8346 83.0067 52.4856 77.4842 50.1248 73.5636C48.2699 70.4861 47.4268 73.6901 44.9817 71.0342C41.6513 67.4087 37.6464 60.1156 39.6278 47.2156C42.8317 26.3058 59.3994 23.8607 71.667 26.1793C84.019 28.5401 90.3425 35.5381 92.366 44.8548Z" fill="white"/>
<path d="M47.0891 74.7863C46.1195 73.1421 44.8548 71.7088 43.6744 70.1912C42.5362 68.6314 41.6087 66.9029 40.8499 65.1323C35.8332 52.8225 37.7724 35.4961 50.0822 28.2451C55.1832 25.2941 61.3381 24.5774 67.0715 25.0412C79.3391 25.9265 90.595 31.5755 93.2509 44.5598C94.6842 50.2931 92.745 56.1951 91.6489 61.802C91.143 64.5843 91.5646 67.451 91.5224 70.3176C91.4803 73.2265 90.6793 76.1353 89.5832 78.8333C88.9087 80.6882 87.7283 82.3323 86.5058 83.85C84.4822 86.2951 82.4587 88.7823 79.8871 90.6794C79.2969 91.101 78.243 91.3118 77.5264 91.3961C75.545 91.6912 73.6058 91.7755 71.6244 91.649C63.8675 91.3118 55.5626 87.5598 52.443 80.0559C52.3166 79.7608 52.7381 79.55 52.9067 79.8029C56.9538 86.2108 64.3734 89.3725 71.7509 89.7941C74.0273 89.9206 76.346 89.8784 78.5803 89.4147C79.6764 88.8667 80.646 87.897 81.5734 87.0118C83.8499 84.7353 86.1685 82.2902 87.8126 79.5078C89.794 75.7559 90.8901 71.6667 90.5528 67.4088C90.4685 65.5118 90.4264 63.5304 90.8058 61.6333C91.143 59.7363 91.5646 57.9235 91.8175 55.9843C92.0705 54.1294 92.1969 52.2323 92.1969 50.3774C91.9862 44.9392 90.2156 39.3323 86.7587 35.1167C79.1283 25.6314 61.0852 23.1441 50.9254 29.6363C44.5175 33.599 41.5244 41.0186 40.5548 48.2274C39.0793 56.8696 39.5009 65.3853 46.3724 71.6667L48.396 73.7745C49.1969 74.702 47.7636 75.798 47.0891 74.7863Z" fill="black"/>
<path d="M52.063 61.3804C52.063 61.3804 50.7561 55.0568 44.6012 55.8157C39.2894 56.4902 37.4345 69.2215 49.4914 72.7627" fill="white"/>
<path d="M48.9439 67.2402C47.9743 66.6922 47.2998 65.7647 47.2576 64.6265C47.2998 63.7833 47.4263 62.8137 47.2155 61.9706C47.089 61.1696 46.2459 60.9588 45.6135 61.001C44.939 61.1275 44.5174 61.9706 44.391 62.6451C44.391 62.6873 44.3488 62.8137 44.3488 62.8559C44.3067 63.0667 43.9694 63.0667 43.8851 62.8559C43.3371 61.2118 44.5596 59.399 46.3302 59.6098C48.8174 59.7784 49.1547 62.3922 48.691 64.3735C48.438 65.2167 48.7753 65.9755 49.239 66.6922L49.3233 66.8186C49.5341 67.0716 49.1969 67.4088 48.9439 67.2402Z" fill="black"/>
<path d="M82.6694 56.9118C83.3018 59.9049 84.4822 62.6872 85.9577 65.301C87.2645 68.5049 83.892 71.5402 80.8988 71.4137C80.5616 71.4137 80.5194 70.95 80.8145 70.8657C82.7116 70.2755 84.44 69.0108 84.7351 67.0716C84.8616 66.4814 84.693 65.9755 84.3979 65.4696C83.0067 62.8559 82.1635 59.8627 82.3743 56.9118C82.3743 56.701 82.6694 56.701 82.6694 56.9118Z" fill="black"/>
<path d="M51.8524 61.4225C50.8828 58.9352 48.7749 56.5744 45.9504 56.6166C45.6975 56.5744 45.2759 56.6587 45.023 56.6587C44.3063 56.7009 43.7161 56.9538 43.1681 57.4597C40.47 60.1577 40.9338 64.9215 43.1259 67.9146C43.8847 68.9685 44.8543 69.896 45.9504 70.6548C47.0465 71.4136 48.269 72.0038 49.5759 72.5097C49.871 72.594 49.7445 73.0577 49.4494 73.0156C46.6249 72.4254 43.9269 71.0342 42.072 68.7156C39.2053 65.2587 38.6151 59.4832 42.0298 56.1107C42.7887 55.4362 43.8426 54.9303 44.8965 54.9303C45.2338 54.9303 45.7396 54.846 46.0769 54.9303C47.8475 55.0146 49.5338 55.8999 50.6298 57.2911C51.5994 58.4715 52.1475 59.9048 52.3161 61.3381C52.3161 61.5911 51.9367 61.6754 51.8524 61.4225Z" fill="black"/>
<path d="M78.4963 75.4607C78.5384 76.1353 78.0326 77.3156 77.1051 78.1588C72.3414 75.25 70.1914 76.7676 70.1914 76.7676C68.5051 74.196 68.8845 70.697 72.9737 73.3529C75.7983 75.2078 77.5688 75.5029 78.4963 75.4607Z" fill="black"/>
<path d="M77.0631 78.201C76.0514 79.0863 74.5337 79.6343 72.468 78.7912C71.4984 78.4117 70.7396 77.6529 70.1494 76.8098C70.1916 76.8098 72.2994 75.2921 77.0631 78.201Z" fill="white"/>
<path d="M79.2972 75.3342C79.2972 75.3342 77.5266 76.3038 72.9736 73.395C67.5354 69.896 68.6315 77.2313 72.4678 78.7911C76.4727 80.4352 78.5383 76.8519 78.4962 75.5029" stroke="black" stroke-width="3" stroke-miterlimit="10" stroke-linecap="round" stroke-linejoin="round"/>
<path d="M70.1914 76.8098C70.1914 76.8098 72.3414 75.2921 77.1051 78.201" stroke="black" stroke-width="3" stroke-miterlimit="10" stroke-linecap="round" stroke-linejoin="round"/>
<path d="M73.1425 52.4432C74.0699 52.5697 74.7866 51.6001 74.4493 50.6726C74.2807 50.1668 73.9856 49.703 73.5219 49.4079C72.0885 48.5226 66.7346 48.4383 63.9101 50.4619C61.3807 52.3168 68.9268 51.853 73.1425 52.4432Z" fill="black"/>
<path d="M84.82 52.9071C84.0612 52.9071 83.5975 51.9375 83.9769 51.1365C84.1877 50.7149 84.4828 50.3355 84.9043 50.1247C86.2112 49.4924 89.7102 49.8718 91.27 52.0218C92.6612 53.9188 88.319 52.8649 84.82 52.9071Z" fill="black"/>
<path d="M71.5829 57.8814C69.4329 56.9539 66.9878 57.2068 64.7535 57.7127C64.5006 57.797 64.332 57.4598 64.5427 57.2912C66.482 55.6892 70.1496 55.4784 71.7094 57.6706C71.8359 57.7549 71.7516 57.9235 71.5829 57.8814Z" fill="black"/>
<path d="M88.1499 58.7668C87.1382 58.0501 85.6627 58.1766 84.4823 58.303C84.0607 58.3452 83.6391 58.4295 83.1754 58.556C83.049 58.5981 82.9225 58.3874 83.0068 58.303L83.0911 58.2187C84.145 57.1227 85.7891 56.8697 87.2225 57.4177C87.7284 57.6285 88.2342 57.9236 88.4872 58.5138C88.6137 58.7246 88.3186 58.9354 88.1499 58.7668Z" fill="black"/>
<path d="M95.7392 51.8951C97.6363 45.403 94.3481 40.8922 91.9873 38.7C90.8912 35.749 89.0363 32.8402 86.0853 30.6059C85.4951 30.1422 84.8628 29.7206 84.1461 29.3412C83.5559 29.0039 82.9235 28.7088 82.2912 28.4137C76.7265 26.0108 67.8314 23.1863 59.0206 24.7039C55.6481 25.252 52.2755 26.4745 49.1137 28.5402C49.0716 28.5402 49.0716 28.5824 49.0716 28.5824C48.8186 28.751 48.5657 28.9196 48.3549 29.0883C47.7647 28.3716 47.0902 27.7392 46.3314 27.149C41.0618 23.1863 35.3284 23.8608 31.3657 29.1726C27.403 34.4422 26.7284 42.3255 31.9981 46.2883C33.6422 47.5108 35.4971 48.2696 37.3941 48.5647C37.352 48.7755 37.352 49.0285 37.3098 49.2392C34.9912 70.0226 50.8843 79.3814 49.6618 72.8471C49.3245 72.7206 49.1559 72.5941 49.1559 72.5098C37.4784 68.8 39.3333 56.3216 44.603 55.6471C46.5 55.3941 47.8912 55.8579 48.9873 56.5324C49.4088 56.9539 49.7882 57.3334 50.1677 57.7128C51.1794 58.9775 52.0647 60.5794 52.0647 61.2118C52.1069 60.7059 52.149 60.1157 52.2755 59.5255C57.3765 63.3196 61.9716 61.9706 70.3186 48.649C75.8412 39.8383 79.1294 38.1098 80.9422 38.3628C81.6588 38.6157 82.3333 39.1637 82.9657 40.0912C83.1343 40.3441 83.303 40.5971 83.4294 40.85C87.1392 40.7657 88.8677 42.9157 89.7529 45.15C89.7529 45.15 89.7529 45.15 89.7529 45.1922C90.4696 47.0892 90.5539 49.0285 90.6382 49.5343C90.6382 49.6187 90.6382 49.6608 90.6804 49.6608C90.5961 51.3471 90.3853 54.2138 90.3431 57.9236C90.3431 59.6098 90.5118 62.9824 90.3853 64.9216C90.3431 65.5118 90.301 66.102 90.2588 66.65C90.2167 66.9451 90.2167 67.2402 90.1745 67.4932C90.1324 67.7461 90.1324 68.0412 90.0902 68.3363C90.048 68.6736 90.0059 68.9687 90.0059 69.3059C90.849 70.3177 92.0716 70.4863 93.0833 71.1608C93.3363 68.2941 92.5775 65.8912 92.2824 62.6451C92.5353 63.7412 92.8726 64.7951 93.3784 65.8912C95.0647 69.5167 94.1373 72.1726 94.1373 72.1726L96.9196 72.3412C97.2147 71.5402 97.4677 70.0647 96.5824 68.1255C95.2333 65.1324 95.149 63.7412 95.149 63.7412C95.149 63.7412 95.8657 66.1863 97.2147 67.8304C98.2686 69.1794 98.6902 70.9922 98.2686 72.4255L99.2804 72.5098C102.316 67.9569 92.9147 61.4647 95.7392 51.8951ZM61.3392 55.5628C58.1353 57.8814 55.4373 57.4177 53.7931 56.701C53.8353 56.701 53.8775 56.6589 53.8775 56.6589C54.8892 56.5745 55.901 56.3638 56.8706 55.9843C61.5079 54.3402 65.8079 50.0824 69.602 46.1618C66.398 50.1245 63.3206 54.1294 61.3392 55.5628Z" fill="black"/>
<path d="M121.496 35.5383C147.086 84.8197 102.104 140.425 48.4807 126.85C24.4091 120.864 5.05909 99.9962 1.05418 75.5031C-3.49876 51.1364 7.50418 24.957 28.0767 11.1717C56.2797 -8.22048 95.3591 -1.77048 115.552 25.9687C115.679 26.0952 115.637 26.306 115.468 26.4325C115.341 26.5589 115.131 26.5168 115.004 26.3482C112.222 22.7648 109.06 19.5187 105.603 16.6099C99.912 11.7619 93.2512 7.96776 86.211 5.39619C50.3777 -7.58812 11.0454 13.9962 3.20418 51.4736C-5.64876 93.4619 30.0581 132.12 72.6365 126.344C105.477 122.213 129.886 91.9021 127.188 58.9354C126.597 50.9678 124.489 43.0844 120.99 35.8334C120.906 35.707 120.99 35.5383 121.117 35.454C121.243 35.3697 121.412 35.4119 121.496 35.5383Z" fill="white"/>
</g>
</svg>
